/* XPM */
static char *_37255332ccb4c80f5411722fbbf3ba13W9pKB9sIJgrUU2B[] = {
/* columns rows colors chars-per-pixel */
"50 50 248 2 ",
"   c None",
".  c black",
"X  c #010101",
"o  c #020202",
"O  c gray1",
"+  c #040404",
"@  c gray2",
"#  c #060606",
"$  c #070707",
"%  c gray3",
"&  c #090909",
"*  c gray4",
"=  c #0B0B0B",
"-  c #0C0C0C",
";  c gray5",
":  c #0E0E0E",
">  c gray6",
",  c #101010",
"<  c #111111",
"1  c gray7",
"2  c #131313",
"3  c gray8",
"4  c #151515",
"5  c #161616",
"6  c gray9",
"7  c #181818",
"8  c #191919",
"9  c gray10",
"0  c #1B1B1B",
"q  c gray11",
"w  c #1D1D1D",
"e  c #1E1E1E",
"r  c #202020",
"t  c gray13",
"y  c #222222",
"u  c #232323",
"i  c gray14",
"p  c #252525",
"a  c gray15",
"s  c #272727",
"d  c #282828",
"f  c gray16",
"g  c #2A2A2A",
"h  c gray17",
"j  c #2C2C2C",
"k  c #2D2D2D",
"l  c gray18",
"z  c #2F2F2F",
"x  c gray19",
"c  c #313131",
"v  c #323232",
"b  c gray20",
"n  c #343434",
"m  c #353535",
"M  c gray21",
"N  c #373737",
"B  c gray22",
"V  c #393939",
"C  c #3A3A3A",
"Z  c gray23",
"A  c #3C3C3C",
"S  c gray24",
"D  c #3E3E3E",
"F  c #3F3F3F",
"G  c gray25",
"H  c #414141",
"J  c gray26",
"K  c #434343",
"L  c #444444",
"P  c gray27",
"I  c #464646",
"U  c gray28",
"Y  c #484848",
"T  c #494949",
"R  c gray29",
"E  c #4B4B4B",
"W  c #4C4C4C",
"Q  c gray30",
"!  c #4E4E4E",
"~  c gray31",
"^  c #505050",
"/  c #515151",
"(  c gray32",
")  c #535353",
"_  c gray33",
"`  c #555555",
"'  c #565656",
"]  c gray34",
"[  c gray35",
"{  c #5A5A5A",
"}  c #5B5B5B",
"|  c gray36",
" . c #5D5D5D",
".. c gray37",
"X. c #5F5F5F",
"o. c #606060",
"O. c gray38",
"+. c gray39",
"@. c #646464",
"#. c #656565",
"$. c gray40",
"%. c #676767",
"&. c #686868",
"*. c DimGray",
"=. c gray42",
"-. c #6C6C6C",
";. c #6D6D6D",
":. c gray43",
">. c #6F6F6F",
",. c gray44",
"<. c #717171",
"1. c #727272",
"2. c gray45",
"3. c #747474",
"4. c gray46",
"5. c #767676",
"6. c #777777",
"7. c gray47",
"8. c #797979",
"9. c gray48",
"0. c #7B7B7B",
"q. c #7C7C7C",
"w. c gray49",
"e. c #7E7E7E",
"r. c gray50",
"t. c #808080",
"y. c #818181",
"u. c gray51",
"i. c #838383",
"p. c #848484",
"a. c gray52",
"s. c #868686",
"d. c gray53",
"f. c #898989",
"g. c #8B8B8B",
"h. c gray55",
"j. c #8D8D8D",
"k. c #8E8E8E",
"l. c gray56",
"z. c #909090",
"x. c gray57",
"c. c #939393",
"v. c gray58",
"b. c #959595",
"n. c gray59",
"m. c #979797",
"M. c #989898",
"N. c #9A9A9A",
"B. c #9B9B9B",
"V. c gray61",
"C. c #9D9D9D",
"Z. c gray62",
"A. c #9F9F9F",
"S. c #A0A0A0",
"D. c gray63",
"F. c #A2A2A2",
"G. c gray64",
"H. c #A4A4A4",
"J. c #A5A5A5",
"K. c gray65",
"L. c #A7A7A7",
"P. c gray66",
"I. c #A9A9A9",
"U. c #AAAAAA",
"Y. c gray67",
"T. c #ACACAC",
"R. c gray68",
"E. c #AEAEAE",
"W. c #AFAFAF",
"Q. c gray69",
"!. c #B1B1B1",
"~. c #B2B2B2",
"^. c gray70",
"/. c #B4B4B4",
"(. c gray71",
"). c #B6B6B6",
"_. c #B7B7B7",
"`. c gray72",
"'. c #B9B9B9",
"]. c gray73",
"[. c #BBBBBB",
"{. c #BCBCBC",
"}. c gray74",
"|. c gray",
" X c gray75",
".X c #C0C0C0",
"XX c #C1C1C1",
"oX c gray76",
"OX c #C3C3C3",
"+X c gray77",
"@X c #C5C5C5",
"#X c #C6C6C6",
"$X c gray78",
"%X c #C8C8C8",
"&X c gray79",
"*X c #CACACA",
"=X c #CBCBCB",
"-X c gray80",
";X c #CDCDCD",
":X c #CECECE",
">X c gray81",
",X c #D0D0D0",
"<X c gray82",
"1X c #D2D2D2",
"2X c LightGray",
"3X c gray83",
"4X c #D5D5D5",
"5X c gray84",
"6X c #D7D7D7",
"7X c #D8D8D8",
"8X c gray85",
"9X c #DADADA",
"0X c gray86",
"qX c gainsboro",
"wX c #DDDDDD",
"eX c gray87",
"rX c #DFDFDF",
"tX c gray88",
"yX c #E1E1E1",
"uX c #E2E2E2",
"iX c gray89",
"pX c gray90",
"aX c #E6E6E6",
"sX c #E7E7E7",
"dX c gray91",
"fX c #E9E9E9",
"gX c #EAEAEA",
"hX c gray92",
"jX c #ECECEC",
"kX c gray93",
"lX c #EEEEEE",
"zX c #EFEFEF",
"xX c gray94",
"cX c #F1F1F1",
"vX c gray95",
"bX c #F3F3F3",
"nX c #F4F4F4",
"mX c gray96",
"MX c #F6F6F6",
"NX c gray97",
"BX c #F8F8F8",
"VX c #F9F9F9",
"CX c gray98",
"ZX c #FBFBFB",
"AX c gray99",
"SX c #FDFDFD",
"DX c #FEFEFE",
"FX c white",
/* pixels */
"                              . . . . . . . . . . . . . . . . . . . .                               ",
"                              . . . . . . . . . . . . . . . . . . . . ..                            ",
"                              ; . 6 7 2 + . . . + + + . . + 6 7 6 . 2                               ",
"                      g . g <.M.b.z.Z.G.Z.G.K.G.G.Z.G.G.G.G.G.Z.b.M.b.@.w . n                       ",
"                      . . . >.<X:X/./.Q.Q./.'.|.|.|.|.'.Q.T./././.4X:X@.. . +                       ",
"                      y . s w.|.'.U.K.U.K.U.U.T.T.T.U.U.U.K.K.U.U.|.|.9.y . g                       ",
"                = 2 ~ w.z.b.Z.K.Q.Q.T.U.T.T.U.K.U.K.K.K.U.T.T.T.Q.Q.U.Z.b.z.9.H = ;                 ",
"              l . . D Q.4X|.U.U.U.U.K.U.T.T.U.K.G.K.U.T.T.U.U.K.U.U.U.T.oXqXT.l . . C               ",
"              D . + ^ T.oXU.K.T.U.K.Z.Z.K.U.T.U.G.K.K.T.T.G.Z.Z.K.T.T.U.T.+XU.H . . R               ",
"              H . + L G.+X/.U.U.T.U.K.G.G.K.K.K.G.G.K.U.K.G.G.K.T.T.T.T.'.*XG.n . . ^               ",
"                . . R /.qX*X/.U.K.K.K.G.M.Z.Z.Z.Z.Z.G.Z.M.Z.Z.K.U.K.U./.<XiXT.C . .                 ",
"              H . . C f.G.Z.K.T.K.K.T.T.U.K.U.U.T.T.U.U.U.U.Q.Q.K.U.T.K.G.K.f.b . + R               ",
"        n y g ; . . + 2 ; l w.Q./.|.qXfXsXqXqXiXiXiXqXqXqXfXkX0X|.'.Q.5.g 2 6 = . . ; y 7 C         ",
"        . . . . . . . . . . @.|.<XiXFXFXFXFXFXFXFXFXFXFXFXFXFXFXiX4X'.... . . . . . . . . .         ",
"        = . . . . . = 2 2 s +.z.Z.'.kXFXZXFXFXFXFXFXFXFXFXFXFXsX'.G.j.+.g 6 6 + . . . . . 2         ",
"        = . . . . + R oXkXQ.^ 6 2 s b b l l b b g l l b b b n b s ; 7 ..oXkX/.H . . . . . 2         ",
"        . . . . . = 5.FXFXqXH . . . . . . . . . . . . . . . . . . . . ~ kXFXmX@.. . . . . +         ",
"        l 2 ; . . + *.bXFXqX@.= . = = = + = ; ; = ; ; = + + = = . . ; <.kXFXsX[ . . + ; ; g         ",
"b l D 9.<XkXG.y . . +.fXFXmX<X|.'.oX*X*X*X*X*X+X+X+X+X*X:X*X*X*XoX/.'.<XZXFXqX~ . . n T.kX+X>.n l C ",
". . . 9.FXFX0Xb . . L qXFXFXFXFXFXFXFXFXFXFXFXFXFXFXFXFXFXFXFXFXFXFXFXFXFXFX4XD . . R bXFXZX*.. . . ",
". . + 9.ZXFX4X_ . = @.iXFXFXZXFXFXmXiXqXsXmXFXFXFXFXFXFXbXiX0XsXZXFXFXZXFXFX0X... + @.sXFXbX<.. . . ",
". . = 5.bXFXFX:XK.T.4XZXFXZXZXFXZX|.R ; C U.mXFXZXZXFXbXZ.l ; [ +XZXFXZXZXFXFX4XU.U.<XFXFXsX@.. . . ",
". . . 5.ZXFXFXFXFXFXFXFXmXZXFXFXFXZ.+ . . 9.bXFXFXFXFXbX<.. . 7 U.FXFXFXmXZXFXFXFXFXFXFXFXbX@.. . . ",
". . 7 w.iXZXkXbXbXfXkXZXFXFXFXFXFXK.6 . = a.mXFXFXFXFXmXw.. . s T.FXFXZXFXFXZXfXkXmXmXbXZXqX9.6 . . ",
"oX*X|.a.L b D D g n z.fXFXFXFXFXFXU.6 . ; j.ZXFXFXFXFXZXt.. . s Q.FXFXFXFXFXsXa.b b H C l R z.+X+X|.",
"FXFXFXa.. . . . . . *.FXFXFXFXFXZXZ.+ . . t.ZXFXFXFXFXZX9.. . 2 U.FXFXFXFXFXbX[ . . . . . = M.FXFXFX",
"FXFXZXf.= . . . . + [ 0XFXkXmXFXFXT.g . 7 j.bXFXmXZXFXkXt.6 . l '.FXFXZXmXFX4X^ . . . . . 2 z.FXFXFX",
"FXFXmXt.+ . . . . . 2 C C ..+XFXFXfX'.K.T.|.+X*X:X:X:X+XoXT.G./.kXFXZX'...H D 6 . . . . . ; j.FXFXFX",
"FXFXFXt.. . . . . . . . . 7 T.FXFXFXFXFXFXsX'.T.'.'.U.oXfXFXFXFXFXFXFXZ.= . . . . . . . . + M.FXFXFX",
"FXFXkXf.7 . . + ; 2 + . . w Z.ZXFXFXFXFXZX4XK.b.b.b.b.K.0XFXFXFXFXFXmXb.6 . . + ; = . . . w j.bXFXFX",
"L H ~ 9.T.|././.+X|.@.; . ; n _ _ R R ~ ~ D l l n b g l D ~ R R ~ _ _ n = . 6 <.|.oXQ.'.|.U.<.L H R ",
". . . 5.FXFXFXFXFXFXU.7 . . . . . . . . . . . . . . . . . . . . . . . . . . y Q.FXFXFXFXFXbX*.. . . ",
". . = 5.mXFXFXFXFXFXG.6 . . . . . . . . . . . . + + . . . . . . . . . . . . w U.FXFXFXFXFXbX>.. . . ",
". . = 5.bXFXFXFXFXFXK.7 . . . . . . + . . . + + + + + + . . . + . . . . . . y T.FXFXFXFXFXfX>.. . . ",
". . . 5.FXFXFXFXFXFXQ.y . . . . . . . . . . + + . . + + . . . . . . . . . . g oXFXFXFXFXFXbX+.. . . ",
". . ; <.iXFXFXFXFXmXb.7 . . . . . . . . + + . . + . . . + + . . . . . + . . 7 Z.ZXFXFXZXFXiX>.; . . ",
"    K.9.R H ^ [ +.[ l . . ; R t.a.5.5.f.9.b . . . . . + C w.a.<.9.f.t.H = . . b [ .._ ~ D ^ a.      ",
"      5.. . . . . . . . . 6 w.iXfX0XqXbX*X^ . . . . . + ..<XkX0X0XbX0X<.= . . . . . . . . . t.      ",
"      j.; . . . . . . . . w >.T.'./.'.'.G.~ ; . . . . 2 _ K.|././.'.T.*.7 . . . . . . . . 2 z.      ",
"            a.g . . s *.a.*.L b l C C C H _ *.<.5.5.5.@.~ C n D C g b ^ 5.a.+.7 . . b j.            ",
"              ~ . . L /.fXK.s . . . . . + +.*XsX0XiXfXoX~ . . . . . . n /.sXK.b . . ..              ",
"              L . . H Q.iXK.C . . . . . ; +.'.+X/./.+X'.+.; . . . . . H Q.iXU.b . . ^               ",
"              D . . D U.4X/.w.....>.<.<.@.^ L D C n C L ..>.<.>.*.....t.'.0XG.l . . ~               ",
"              l . . b T.iX<X+X+X:X4X0XbXoXH . . . . . . R *XfX0X<X:XoXoX4XiXG.g . . C               ",
"              H . . D b.|./.Q./.|.'.'.oXU.R . . . . . + ~ T.oX'.|.'./.Q./.|.b.n . . R               ",
"                Z.j.>.H n H L R ~ R D l R t.K.K.G.G.Q.G.<.H b D R R L L D n R 9.                    ",
"                    j.. . . . . . . . . w U.FXFXFXFXFXFXZ.; . . . . . . . . +                       ",
"                    G.2 . . . . . . . . 6 b.FXFXFXFXFXFXj.; . . . . . . . . w                       ",
"                      G.j.K.  5.s . . . . n *.<.@.*.5.*.n + . . + . . . + D                         ",
"                                R . . . . . . . . . . . . . . . . . . . 6 j.                        "
};
