/* XPM */
static char *f3bcbc6b53ae4addd75fe5e912c70289owkQuCRPhIRhBFvk[] = {
/* columns rows colors chars-per-pixel */
"50 50 224 2 ",
"   c None",
".  c black",
"X  c #010101",
"o  c #020202",
"O  c gray1",
"+  c #040404",
"@  c gray2",
"#  c #060606",
"$  c #070707",
"%  c gray3",
"&  c #090909",
"*  c gray4",
"=  c #0B0B0B",
"-  c #0C0C0C",
";  c #0E0E0E",
":  c gray6",
">  c #101010",
",  c #111111",
"<  c gray7",
"1  c #131313",
"2  c gray8",
"3  c #151515",
"4  c #161616",
"5  c gray9",
"6  c gray10",
"7  c #1B1B1B",
"8  c #1D1D1D",
"9  c #1E1E1E",
"0  c gray12",
"q  c #202020",
"w  c gray13",
"e  c #222222",
"r  c #232323",
"t  c gray14",
"y  c #252525",
"u  c gray15",
"i  c #272727",
"p  c #282828",
"a  c gray16",
"s  c #2A2A2A",
"d  c gray17",
"f  c #2C2C2C",
"g  c #2D2D2D",
"h  c gray18",
"j  c #2F2F2F",
"k  c gray19",
"l  c #313131",
"z  c #323232",
"x  c gray20",
"c  c #343434",
"v  c #353535",
"b  c gray21",
"n  c #373737",
"m  c gray22",
"M  c #393939",
"N  c #3A3A3A",
"B  c gray23",
"V  c #3C3C3C",
"C  c gray24",
"Z  c #3E3E3E",
"A  c #3F3F3F",
"S  c gray25",
"D  c #414141",
"F  c gray26",
"G  c #434343",
"H  c #444444",
"J  c #464646",
"K  c gray28",
"L  c #484848",
"P  c #494949",
"I  c gray29",
"U  c #4C4C4C",
"Y  c #4E4E4E",
"T  c #505050",
"R  c #515151",
"E  c gray32",
"W  c gray33",
"Q  c gray34",
"!  c #585858",
"~  c gray35",
"^  c #5A5A5A",
"/  c #5B5B5B",
"(  c gray36",
")  c #5D5D5D",
"_  c gray37",
"`  c #606060",
"'  c gray38",
"]  c #626262",
"[  c gray39",
"{  c #646464",
"}  c #656565",
"|  c gray40",
" . c #676767",
".. c #686868",
"X. c #6A6A6A",
"o. c gray42",
"O. c #6C6C6C",
"+. c #6D6D6D",
"@. c gray43",
"#. c #6F6F6F",
"$. c gray44",
"%. c #717171",
"&. c #727272",
"*. c gray45",
"=. c #747474",
"-. c gray46",
";. c #767676",
":. c #777777",
">. c gray47",
",. c #797979",
"<. c gray48",
"1. c #7B7B7B",
"2. c #7C7C7C",
"3. c gray49",
"4. c #7E7E7E",
"5. c #808080",
"6. c #818181",
"7. c gray51",
"8. c #838383",
"9. c #848484",
"0. c #888888",
"q. c #898989",
"w. c gray54",
"e. c #8B8B8B",
"r. c gray55",
"t. c #8E8E8E",
"y. c #909090",
"u. c #929292",
"i. c #939393",
"p. c gray58",
"a. c #959595",
"s. c gray59",
"d. c #979797",
"f. c #989898",
"g. c gray60",
"h. c #9A9A9A",
"j. c #9B9B9B",
"k. c gray61",
"l. c #9D9D9D",
"z. c gray62",
"x. c #A0A0A0",
"c. c gray63",
"v. c #A2A2A2",
"b. c gray64",
"n. c #A4A4A4",
"m. c #A5A5A5",
"M. c #A7A7A7",
"N. c gray66",
"B. c #A9A9A9",
"V. c #AAAAAA",
"C. c gray67",
"Z. c #ACACAC",
"A. c gray68",
"S. c #AEAEAE",
"D. c gray69",
"F. c #B2B2B2",
"G. c gray70",
"H. c gray71",
"J. c gray73",
"K. c #BBBBBB",
"L. c #BCBCBC",
"P. c gray",
"I. c gray75",
"U. c #C0C0C0",
"Y. c #C1C1C1",
"T. c gray76",
"R. c #C3C3C3",
"E. c gray77",
"W. c #C5C5C5",
"Q. c #C6C6C6",
"!. c gray78",
"~. c #C8C8C8",
"^. c gray79",
"/. c #CACACA",
"(. c #CBCBCB",
"). c gray80",
"_. c #CDCDCD",
"`. c #CECECE",
"'. c gray81",
"]. c #D0D0D0",
"[. c gray82",
"{. c #D2D2D2",
"}. c LightGray",
"|. c gray83",
" X c #D5D5D5",
".X c gray84",
"XX c #D7D7D7",
"oX c #D8D8D8",
"OX c gray85",
"+X c #DADADA",
"@X c gray86",
"#X c gainsboro",
"$X c #DDDDDD",
"%X c gray87",
"&X c #DFDFDF",
"*X c gray88",
"=X c #E1E1E1",
"-X c #E2E2E2",
";X c gray89",
":X c #E4E4E4",
">X c gray90",
",X c #E6E6E6",
"<X c #E7E7E7",
"1X c gray91",
"2X c #E9E9E9",
"3X c #EAEAEA",
"4X c gray92",
"5X c #ECECEC",
"6X c #EFEFEF",
"7X c gray94",
"8X c #F1F1F1",
"9X c gray95",
"0X c #F4F4F4",
"qX c gray96",
"wX c #F6F6F6",
"eX c gray97",
"rX c #F8F8F8",
"tX c #F9F9F9",
"yX c gray98",
"uX c #FBFBFB",
"iX c gray99",
"pX c #FDFDFD",
"aX c #FEFEFE",
"sX c white",
/* pixels */
"                                            Y B G Z z                                               ",
"                                            i : > > : Z                                             ",
"                                            . . . . . 6                                             ",
"                                            G Z G G G Q                                             ",
"      G > > 3 3 > 3 > 3 3 > 3 > 3 > > 3 & P sXsXsXsXsXoX& : > 3 > 3 > 3 3 3 > > 3 > 3 > 3 :         ",
"      a . . . . . . . . . . . . . . . . . J sXsXsXsXsX&X& . . . . . . . . . . . . . . . . .         ",
"      z . . a J Z G Z P 0 . . 3 c c e . . P sXsXsXsXsXoX: . @ a c z & . . z J Z G G G 3 . .         ",
"      z . . N.sXsXsXsXsX2.. . ~ &X>X5.. . P sXsXsXsXsXXX: . 3 H.-XI.e . @ W.sXsXsXsXsX~ . .         ",
"      e . . G.sXsXsXsXsX:.. . T &X6X2.. . Z sXsXsXsXsXoX. . @ G.3XI.3 . . W.sXsXsXsXsXQ . .         ",
"      ..Z B u.Y.J.>XsXsXa.a a %.`.oXu.a i } qXqX9X6XqXXXB a Z H.XXI.P i c `.sXsX{.J.Y.#.Z Z         ",
"            [ . . u.sXsX>XY.W.W.W.W.W.^.W.^.W.W.Y.W.W.W.^.W.^.W.W.^.^.W.`.9XsXsXP . .               ",
"            c . . a.sXsX9X^.^.{.oXoXXX`.`.^.W.W.W.W.W.W.`.`.`.oXoXXX`.^.`.sXsXsXZ . .               ",
"              Z B q.W.Y.W.W.^.G.a.t.N.^.W.W.W.^.W.^.W.W.W.^.Y.z.u.j.I.^.W.W.Y.W.[ Z B               ",
"                  ... . } XX&X#.. . J XX`.W.W.W.W.W.W.W.^.XXG.3 . & c.&XW.a . .                     ",
"                    . . ~ oX-X#.. . P >X-X{.I.Y.Y.Y.Y.W.XX3XY.> . @ c.&XY.6 . .                     ",
"                  2.a i 1.{.&X#.. . c c.a.N.XXXX{.XXoX^.z.c.t.> . & n.&XY.T a a                     ",
"            J 3 @ %.XX^.^.W.&X%.. . . . . P sXsXsXsXsXoX: . . . . : c.XXW.W.^.`.c @ 3               ",
"            z . . %.&X{.^.W.&X... . . . . B sXsXsXsXsXoX. . . . . . c.XXW.`.XX{.B . .               ",
"            B . . :.XX^.W.W.oX5.i a h h i [ qXqX9X9XqXXXc i a h i c N.{.W.W.`.^.B . .               ",
"            c . . %.XX^.W.^.W.^.W.^.^.W.W.W.^.W.W.W.^.W.^.^.^.W.W.^.^.W.W.^.^.^.B . .               ",
"            a . . :.6XoXXXXXXXoX&X-XoX`.`.^.Y.I.I.Y.I.Y.^.^.`.&X&X&XXXXXXXXX&X&Xz . .               ",
"              B c %.c.z.z.z.z.j.j.a.A.W.W.^.{.{.{.{.XX{.^.^.Y.c.j.z.j.z.z.j.z.z.T B B               ",
"                  ... . . . . . . . J XXW.XXsXsXsXsXsXqX^.XXH.3 . . . . . . . .                     ",
"                    . . . . . . . . Z >XoX6XsXsXsXsXsXsXoX>XI.. . . . . . . . .                     ",
"                  2.i a > . . 3 B c ~ n.z.N.^.`.^.^.`.W.c.c.u.G c z & . . 0 a i                     ",
"            G 3 @ %.XX&X[ . . %.sXsXc.. . . . . . . . . . . 6 -XsX6Xh . . j.&X^.B @ 3               ",
"            P . . :.qXtX[ . . %.sXsXN.. . . . . . . . . . . . tXsXsXe . . N.tX>Xh . .               ",
"            1.i i #.N.N.[ e i #.`.`.u.z h z z z z z z z z z G J.`.Y.J i a 5.N.c.P i i n.            ",
"      B 3 & 2.XXXXT . . [ XX&X%.. . ( sXsXsXsXsXtXsXsXsXsXsX>X0 . & n.oXY.h . . q.oX{.J @ >         ",
"      G . . 2.-X&XT . . } &X3X} . . Q sXsXsXsXsXsXsXsXsXsXsXsX& . . n.3XW.h . . t.>XoXB . .         ",
"      %.e e t.XXXXT . . } XX&X5.e e [ {.{.`.`.`.`.`.`.`.`.{.J.B e z A.oXY.h . . t.oX`.[ e e z.      ",
"G > & q.{.W.^.W.XXT . . } XX^.W.Y.oX2.. . . . . . . . . . . > A.`.W.W.{.Y.h . . q.oXW.W.Y.XXT @ > 5.",
"3 . . a.qX&XoXoX3X~ . . ..XX^.W.^.-X%.. . . . . . . . . . . . A.XX^.W.`.Y.z . . a.6XoX&X&XqXY . . ..",
"~ z B 9.N.n.c.n.A.G . . } XX^.^.{.-Xa.a h h h h h h h h h i Z I.oX{.^.`.Y.h . . %.A.n.n.c.N.[ z z u.",
"      Z . . . . . . . . } XXY.&XsXsXsXtXtXsXtXsXtXsXsXtXtXsXtXsXsXtX{.^.Y.h . . . . . . . . 9.      ",
"      > . . . . . . . . #.>XXX3XsXsXsXsXsXsXsXsXsXsXsXsXsXsXsXsXsXsX&X&X{.z . . . . . . . . 2.      ",
"      ( z c c B c > . . Q A.j.^.sXsXsXsXsXsXsXsXsXsXsXsXsXtXsXsXsXtXG.c.z.i . . e B c c c h         ",
"                  } . . . . . %.sXsXsXsXsXtXsXsXsXsXsXsXsXsXsXsXsX6Xh . . . . .                     ",
"                  2.. . . . . :.sXsXsXsXsXsXtXsXsXsXsXtXsXtXsXsXsXsXa . . . . .                     ",
"                  5.0 i > . . ~ oX^.-XsXsXtXsXsXtXsXsXsXsXsXtXoXXXW.i . . 0 e 0 G.                  ",
"            P 3 & %.{.oX( . . . @ . [ sXsXsXsXsXsXsXsXsXsXsX>Xe . @ . . . a.XXW.B @ 3               ",
"            z . . :.oX-X~ . . . . . T sXsXsXsXsXsXsXsXsXsXsXqX. . . . . . a.-X^.c . .               ",
"            B . . 1.-X>X:.0 0 i a a ..XXXXXX{.XX{.{.XX{.XXXXY.Z a a e 6 i n.>XXXZ . .               ",
"            c . . a.sXsX&XJ.J.oXsXsXc.. . @ @ @ @ @ @ @ @ . 0 &XsXqX^.I.Y.9XsXsXP . .               ",
"            i . . j.sXsXqXoXXXtXsXsXN.. . . . . . . . . . . . tXsXsX3XXX-XsXsXsXG . .               ",
"            ( h a t.XXoXI.c.c.J.oXXXj.a h h z z z z h z h h J Y.oX{.A.z.N.^.oXXX( h h               ",
"                  :.. & @ @ . @ & . ~                         e . & @ @ @ @ @ &                     ",
"                  G . . . . . . . . P                         . . . . . . . . .                     ",
"                  Q h h h h h h h a 1.                        P a z h h h h a z                     ",
"                                                                                                    "
};
