/* XPM */
static char *result[] = {
/* columns rows colors chars-per-pixel */
"50 50 79 1 ",
"  c #020202",
". c #0B0B0B",
"X c #161516",
"o c #181618",
"O c #1C1C1C",
"+ c #1E201E",
"@ c #201F20",
"# c #242424",
"$ c #2C2C2C",
"% c #2E312E",
"& c #343434",
"* c #373B37",
"= c #383738",
"- c #3B3C3B",
"; c #403E40",
": c #424242",
"> c #454B45",
", c #4D4D4D",
"< c #4E524E",
"1 c #504F50",
"2 c #545554",
"3 c #5B575B",
"4 c #5B5B5B",
"5 c #646464",
"6 c #656965",
"7 c #6A676A",
"8 c #6C6C6C",
"9 c #6E726E",
"0 c #726F72",
"q c #747474",
"w c #757A75",
"e c #787778",
"r c #7B7C7B",
"t c #7D827D",
"y c #838383",
"u c #858B85",
"i c #888588",
"p c #8C8C8C",
"a c #8D928D",
"s c #949494",
"d c #929A92",
"f c #9A979A",
"g c #9B9B9B",
"h c #9DA19D",
"j c #A19FA1",
"k c #A3A3A3",
"l c #A7A9A7",
"z c #AAA6AA",
"x c #ABABAB",
"c c #AEB1AE",
"v c #B2AFB2",
"b c #B3B3B3",
"n c #B5BBB5",
"m c #BCB6BC",
"M c #BCBCBC",
"N c #BCC4BC",
"B c #BFC9BF",
"V c #C1BDC1",
"C c #C3C3C3",
"Z c #C3CAC3",
"A c #CAC5CA",
"S c #CBCBCB",
"D c #C5D1C5",
"F c #CBD4CB",
"G c #D4D4D4",
"H c #D5DCD5",
"J c #D9D7D9",
"K c #DBDBDB",
"L c #DDE1DD",
"P c #E1DEE1",
"I c #E5E5E5",
"U c #E4EAE4",
"Y c #ECECEC",
"T c #EEF1EE",
"R c #F1EFF1",
"E c #F4F4F4",
"W c #F5FAF5",
"Q c #F8F6F8",
"! c #FEFEFE",
/* pixels */
"QE3&>1,,1,,,,,,,,,,,,,,,1,,,,,,,,,,>,,,,,,,,,,:+v!",
"!mo!!PYIIUIYIIIUYIIYIYUIYIIUYIIYYIIYYIIYYIIYII!y$!",
"!VO!Gpgfkfgfjfgfgfggffggfgfgfgggfhfgfgfgfffhfs!t&!",
"!VoCs5qe5qqe8eqqqq8q9qqqq8eee7qqq6eqq8eqqqe88qS4;!",
"!V+EKfyGlbpFlmsCxbpbbbgxClxfFllyGlbpGlnfNvbpxMQr=!",
"!VOQQufMYffbYlpbYbpcLCplGKpkAYpfVYfsbYlpbYcpxG!e=!",
"!VOE!kklYxgkRCggISffKHfgSYjgbEljlTvgjRNffYSffC!q=!",
"!VOQIMkxfKlMfGxMfCbcfmCxxxSlbgGgxfKlMfGxmdCbck!t=!",
"!VO!SbKppMIgpbIlyxKcylHCpgSKpsMKppMIgpbIlyxKly!r=!",
"!VO!SgQkkkQbggECsfYGsfGIfgNTfkxQkkkQbggECsfYGp!t-!",
"!V@QKggKfmkGlMhSxbgCmxxmClbxGfbkKfmkGkMkSbbgMV!r=!",
"!V@QYypCHfuMKlybKlyxGbikGSpfSGppVHspMKlybKlylS!e=!",
"!V@EQfllQhkgQmffESafIKpgSYslbEfllEjlgQbffESafS!q=!",
"!VOQYMfblJgMlGlMlCbxkCMlbbSgbcGfblGgMlGlmkZxxxQy=!",
"!m@QSbSsyCGlyMGxybGlylGNafGSfpZSsyAGlyNGvybGly!t=!",
"!VO!GgQslkQlgfQNpfYSifKPpkVYplxEflkQlgfQMpsYSy!r-!",
"!VOQGgcGfbbGhmxSlblCblvCNkbMSfccGfbbGgmcSlbkCb!r=!",
"!V@!!fpJIbpGICpSICumISflIJkfIKkpGIbpGICpZYMpbK!y=!",
"!VOGb5yyk8rrxeqely8ekp8rsf8yuk5yyk8yrleqely8esK4;!",
"!VoFlqytqyytqyyyetyyeryyeeyyreyyreyyreyyyetyteK5-!",
"!V@!Ykbbbbbbbbbbbbbbbbbbbbbbbbbbbbbbbbbbbbbbbb!p=!",
"!VOEIbCCCCCCCCCCCCCCCCCCCCCCCCCCCCCCCCCCCCCCNV!q=!",
"!A.=,2,,,1,<<,,<,,1,11,<<,,,2,1,<,,<,,,,,,1,,,2X1!",
"!A&7#.ooXXXXXXXXoXXXXXXoXoXXXXoXXXoXXoXXoXXXXX;15!",
"QS$-2222>233,<23>,321>322>322>232>232>223>,222,$0E",
"Jb8sP--2g2-:s8;:pt::yu::8s;;3g>-2g2;:s8-:py:-rH3lM",
"Pb7xb4y4$etq&2yr-:yr=:yr2&tt5$ry4$qye&3yr=:rq2VqkM",
"Pb5gkR!b Q!I b!!.q!!#3!!7#!!g !!b Q!I b!!.q!E0h0jV",
"Pb7gbVZqoGIp.kQx 0!v@4!C-=QS5XIAqOGIp.kQx q!k2c9kV",
"Ib5hlsk3 mb8 pGq 3Gp ;Ip#+Kf: Nk2 bn6 pGe 4Ge;c8kV",
"Kb5kM&&=2>-&,,:$>8-#>5:&%2>&=5=&=3,-$13:$>5:$,S8hV",
"Gm5p!CCSYSCCYIAAICCKKJNm!QmCVKKCCYmCGYGCCYKCCII4kV",
"Ib5sYsbpmlcpbGmZLlW!ZHZpLZbLNM!LGGdnlxbxylClyvQ3kM",
"Pb5p!GKGIKKGIlpedduuadehqfuudaupdtahxUIKGKIKGPI4kM",
"Pb5sRpCxbfNmxct XOOO@X psc& O#OOX ,cgbamCvpxSbF5kM",
"Pb7pElGCCbGSNc6-f5555f:wsh:ee455y9<kbSxGKClCKSS5kV",
"Ib5y!KGCQYGCEG6>y@#oOi,ysk,e:@#X2q4xlWQSMI!SCIY3kM",
"Gm5y!GKZYPGZISy#2YQIS,=jab6#fQYTqXyMlYIGAITGSKI3kV",
"xA5sYfcfblbfxmp#,!!WL*-jsb5ok!Y!9.iAebbbpxmxpbE4kM",
"zA8pQGGSPGGSKCi#2!TUN:;jpb7ol!K!6XyVkIKGCGYGNKY4kM",
"lS5pQlSCCbFSCmp#2ITHN:-jsb5+s!UL8XiMlSxSKClCKSF5kM",
"xS6sEpCbbfCMlxi:eO#+%2.xab38-##o2O5CgbsMScpbSbS5kC",
"xA5p!KLS!YKSQJe:p::>-55fsv2q4::2=5iMlQQKSY!GSIE3gV",
"xA88KffybkfylVt&CRREYa#ksb,9IQTQS%8C9bxsykmaykb2lV",
"xA8yKxMCbnmCvcy&EUILTNozpb-g!LLUE>3ChbbMCbbMMCV4lM",
"zA5y!YYYYYYRYCe-!DNBFG:fsb=vWNBBHr8mCEYRYYYYYQG4kM",
"lS02kyyyyyyyrky,KnbnMN>fpv1fSbnNCq8V9uyyyyyyyyr3lV",
"lSr,2=:-;-;-&lv oXooXO VvG-.XXXXo qY---;;;;-:*,4xV",
"xvl,XOoOoOOOO$8<*---**<6$,5>-*---<82.#OooOXOOXoyhb",
"JAASCASSASSSG4q!!WWW!!!9:>K!!WWWW!b:bGSSSSSSSSSSMG"
};
