/* XPM */
static char *result[] = {
/* columns rows colors chars-per-pixel */
"50 50 61 1 ",
"  c #020202",
". c #0B0B0B",
"X c #161616",
"o c #171817",
"O c #1C1C1C",
"+ c #232323",
"@ c #2C2C2C",
"# c #343434",
"$ c #383738",
"% c #3C3B3C",
"& c #403E40",
"* c #424242",
"= c #4D4D4D",
"- c #4E514E",
"; c #545554",
": c #575B57",
"> c #5B5B5B",
", c #5E615E",
"< c #656565",
"1 c #686768",
"2 c #6C6C6C",
"3 c #747474",
"4 c #797679",
"5 c #7C7C7C",
"6 c #838383",
"7 c #848884",
"8 c #8C8C8C",
"9 c #8E928E",
"0 c #949494",
"q c #959A95",
"w c #9B9B9B",
"e c #9EA59E",
"r c #A3A4A3",
"t c #A5A9A5",
"y c #AAA5AA",
"u c #ABABAB",
"i c #ADB3AD",
"p c #B1AFB1",
"a c #B3B3B3",
"s c #B4B8B4",
"d c #BAB6BA",
"f c #BCBCBC",
"g c #BDC1BD",
"h c #C1BDC1",
"j c #C3C3C3",
"k c #C6C9C6",
"l c #CAC5CA",
"z c #CCCBCC",
"x c #CDD2CD",
"c c #D3D3D3",
"v c #D6DCD6",
"b c #D9D7D9",
"n c #DBDCDB",
"m c #E1DEE1",
"M c #E5E5E5",
"N c #ECECEC",
"B c #ECF0EC",
"V c #F4F4F4",
"C c #F6F9F6",
"Z c #F8F6F8",
"A c #FFFFFF",
/* pixels */
"ZV>#*-==;====-===;=====;==-=--===-=-==-==--=-=*OpA",
"AdoAAmMMMMMMMMMMMMMMMMMMMMMMMMMMMMMMNMMMMMNMMMA6@A",
"AdOAc7rwwwwwrwwwwwrwwwwwwwwwwwerwwwwwwwwwrwwqqA5#A",
"AhOj0<34133423332422332332443<3341334143224222x>&A",
"AhOZnw6cra8zus0jaa8aduwujuuwzyy6cyi8zud0jpa8ufC4%A",
"AhOZV8wfNw0dNy8aMa8uMj8ubb8rzM9wjNqqdNt8dMi8ubA4$A",
"AhOZAwrrBpwrBjwwMxqwbbqwkMwwdNrryBiwrBhwwMz0qlA4$A",
"AhOZMfrpqntdwcufwjapqdjpuuxyiwbwpqbyfwxudwjdurZ6%A",
"AhOAzun88fMw8aMt8unu6ubj8wzb80gn88fMw8aMu6int6A6$A",
"AhOZxwZryrZawwVj0qMb9qbMwwjBwruZerrZawwVj0qMc8A5$A",
"AhOAbwrbwdrcyfrzudwgduudjyaucwirbwdrcyfezuawdgA5%A",
"AhOZN68gbq7fby6avy6ucd6rbz80lc88jbq7fny6dny6uzA4$A",
"AhOZZwyyZerwCsqqBz00Mb8wzM0raVqutVrrwZaqqBz9qzA3$A",
"AhOZNfwaybwfycyfyjuirgguddzwducqaybwfycydyjpuuZ6%A",
"AdOZzaz06jbr6fbu6acu6ycf9wczq8jz06jcr6fbu6act6A5$A",
"AhOAcwV0trCywwCf9qNz8wbM8whN8uuV0urCyewZh90Nz6A5$A",
"AhOZcwicqdacedazyayjauujhrddzqiacqdacwdizuiygdA5%A",
"Ah+AAw8bMu8cMj8jMh8dMzquMbrwmnr8bMu8cMj8lMf8dnA6$A",
"Ahoca<65r265u334r624e724qw256e165r255u334t6239n>%A",
"Ahoxy36636653666367646664466546664666366636664n<%A",
"Ad+AMydaadaaadaaaadaaadaaaaddadaaadaaaaaaadaiaA8$A",
"AhOVMdgjjjjjjhjjjjjjgjjjjjjjjjjgjhjjjjjjjjjjjfA3$A",
"Al.%=-=-====-=-=-===-======-=====-==-==-======;X=A",
"Aj$1+.oXXXXXXXXoXXoXXXoXXXXXooXXXXooXoXoXXoXXX&-1A",
"Zl@%;;;;=;;:==;:==::==;;;=;:;*>>>*;>;*=;;==:;;=@2Z",
"cd20n%%;w;%*02*&86*%68**28*%>w*%;w;&*q2&&86*%5b:ud",
"ma1ua>6>@363#;65$*65$*56;#56<@56:@454#>65%*53;j3rf",
"ma1wyNAa CAM aAA.3AA+:AA2+AAw AAi AAM pAA.3AZ2w3rf",
"na<wihk3XbM8.eAu 2ApO>Aj%$Az<XMj3obM8.rZu 2Ar>u2rh",
"ma1ryqr> da1 8c4 :b8.*M8+Onw* gy: ad2 8c4 :b4&u2rh",
"ma1ef@#$;=%#==*@=2%O=>*$@;*#$<$$$:-%@=;*@=1*@=c1ef",
"cd18AjjzBljjNMjlMjjnbbggbcjjjbbjjNdjbMcjjMMfjMM:rh",
"ma10Mqa8syi8ibfgxqMAskgkkjkkiuAcgk0studu6tgu6aZ:rf",
"Mp<8AbnbMnmcMy76iiteiiweeeeeiietiq9euMmncnMnzMM:rh",
"ma19B8judqhdui:>MMMMMMMCCANMMMMMMf;rwd0dja9uzpc<rf",
"mp19Vycjgaczgi-3AAAAAAAAAAAAAAAAAm,qaltcbjyjbzc,rh",
"Mp16AbbhCMcjVb-3AAAAAAAAAAAAAAAAAb,ryCZxfMAzjMM>rf",
"bd16AbbjNnblMz13AAAAAAAAAAAAAAAAAx4drNMckMBcznM>rf",
"yl10Mqaqdyiqud33AAAAAAAAAAAAAAAAAc4f4siu9ydu8aV>eh",
"yz18Ccbznbbkmj22AAAAAAAAAAAAAAAAAx3drMMcjbMbjmN>rh",
"yz18Zuzjkaczjd23AAAAAAAAAAAAAAAAAc4atzuzbjyjnkz<rf",
"yk<0B8jaaqjftu33AAAAAAAAAAAAAAAAAx4dwd0gza8izdz<rh",
"uz18AnnzZMmzZb<3AAAAAAAAAAAAAAAAAx3dyCZbzMAbzMV>ef",
"ul22bww6drq6uj22AAAAAAAAAAAAAAAAAc4f2au06rd96ed;yh",
"yz16Mudjasdhua33AAAAAAAAAAAAAAAAAz4dediffdaffjf>rf",
"ul16AMBNNNBVNj22AAAAAAAAAAAAAAAAAc3ajVNNNNNBNZb>rh",
"uz2:w66666665y43AAAAAAAAAAAAAAAAAc4d37676666664:th",
"yz4=;%*%*%%%#y7<AAAAAAAAAAAAAAAAAc5m%$&%&&&&%$=,uh",
"yiy-XooOoOooO@;0xxxxxxgtetsvxxxxzk3*XOoOoOooOoO6wd",
"bllzjzzzlzzcc,4ZxzzxxxnmnnvnxxxxxBa*ibzzzlzzzzlzfc"
};
