/* XPM */
static char *_4317159c9a149fcc227ad2fca716300LuAL9aGi1liiPSlm[] = {
/* columns rows colors chars-per-pixel */
"50 50 30 1 ",
"  c #8B8B8B",
". c #8E8E8E",
"X c #929292",
"o c gray59",
"O c #9B9B9B",
"+ c #9F9F9F",
"@ c #A0A0A0",
"# c #A5A5A5",
"$ c gray67",
"% c #AEAEAE",
"& c #B2B2B2",
"* c #B7B7B7",
"= c #BBBBBB",
"- c gray",
"; c #C0C0C0",
": c #C6C6C6",
"> c #C8C8C8",
", c #CDCDCD",
"< c LightGray",
"1 c gray84",
"2 c gray85",
"3 c gainsboro",
"4 c gray89",
"5 c gray90",
"6 c #E9E9E9",
"7 c #ECECEC",
"8 c gray95",
"9 c gray97",
"0 c gray98",
"q c white",
/* pixels */
"q00qq0090qq00990008900989q000000qq0099990900000999",
"58qq090qq000000q008900899q0890qqq09990009999000999",
"18q5350q95359qq9098900890q74260q854580009000990099",
"8q7#@>705;&:609799900989q05;&,782-=,59989000890q09",
"9q5+.*7q4%o&4q080090q000q92%O;89<$@;50q00qq989qq07",
"004%X&7q5$ %5q94360q9537091@X;801@o-7q9547q0855999",
"q04$o&5q5%.&605&#>903&$>801$O-702#.=7q3&#>8q5=$>8q",
"0q4%@=5q6-@;704#X-803#o-704*#:603&#:8q2#o-7q1@X;8q",
"708,:16082>2902$o=703#o-6q6<>27061>4003%O;801@o;8q",
"69q9770qq867q92%o*602$O=6q97780qq770q03$o;9q3#o-7q",
"70q9990qq090q92*#;603=$;6q0900qqq00qq93%O:9q4%+=6q",
"0q9679000090q06<,38q71>17qq99qqq000qq96,;20q7>-18q",
"99888990000qqqq9890q0856900880q0990qqq9990qq0780qq",
"679000989000990qqq00q0090099800989q099qqq999q0qqq0",
"5799q04149q7115000990qq00099994259q722700879000000",
"509887;%:793*%:709880090000005;=,803*&170000qq000q",
"60q007$X*804$O=6000000890000q2#O-7q1@O;7qq09999900",
"780qq6$ &6q6$X*60q0q09880000q1+.=802@o=60q08899990",
"9999q6%X%5q5%X*5000qq9980000q2@X-7q3$O=60089999999",
"900006=@-7q5&+;8q09909999090q4&@:892&$:70989909989",
"59q0971:18q6,:39009900990099081,3906<>490999000999",
"1709798790097690q988000909989098890086900090q00999",
"4709800qq0990q0909889009900980q0989qq0099990000999",
"69099089q00990099989909990q09909000009099909999999",
"59q800980qq099009989909990qq00980qqq99009990999999",
"48q87000978900q0999000990q9990q0098009999099999090",
"5892,4qq7<,40q0899900090q073170q71,6q0890099890099",
"906-$>004*%>7q090000000qq95:&<904=&<8q99000900qq97",
"005$X=903$+=50q090000990q93&O-892%+-60q090q0000q97",
"qq5@.=804#X*5092,39q82<4002#o=703#o*6q82<50q921790",
"005#.*6q4$X*7q6=#:7q5-$>803$o=7q2$o-7q4*$,9q4&#<9q",
"796=#-5q5=@;903#O=604%O=603&$:693&$>902@o;802#o;6q",
"699<:28q8<:3q02@X*604$o&5q61,38071>5001@o:9q2@o;7q",
"7006689qq757q91#X*503%O=5q07770qq759q02@o;801#o-6q",
"90q90089q098092=$-594-$;60090990q089q04*#:782&#;6q",
"9090q0880q990q6<,39071>170099870q0890q81,30q82,39q",
"999900990q90qq0879qq07770009999qq990qqq8780qq8790q",
"89090q909900000qq0q0qqq000900q00990q00qqq9900q0009",
"8000004247072<490988890q0889005238q93150q989000099",
"900006;%:705=$:7099878009899q5-%>803*%<70089999999",
"9999q6$.&6q4$X*7qq009990999qq2+X-701+o;70099999990",
"7799q8$X&5q5&O=5q00000999990q2@o:8q2@o;70099999990",
"889006@.&6q4$o*5q09900999900q1@o;801$o-60009909999",
"8990q6&+;805$+;7098900090090q3&#:703&$:6q099000099",
"5909992<30q8<>40q88890990099q82,40q82,500099900099",
"48q980009899989q099999990q9900989qqq970q0999900009",
"6799900q9780qq0000990999009889q00090q9q09999999909",
"856qq90998900990000009980q0880q0009009889009999990",
"878qq09999qq98999990099900099009000008999999999999",
"79q009000qqq00009990099900980q980q0qq9999000998999"
};
