/* XPM */
static char *_0dc967a76a747cbb61b6670e43d61a2Snkm9HlTmo6UyAmS[] = {
/* columns rows colors chars-per-pixel */
"50 50 247 2 ",
"   c None",
".  c black",
"X  c #010101",
"o  c #020202",
"O  c gray1",
"+  c #040404",
"@  c gray2",
"#  c #060606",
"$  c #070707",
"%  c gray3",
"&  c #090909",
"*  c gray4",
"=  c #0B0B0B",
"-  c #0C0C0C",
";  c gray5",
":  c #0E0E0E",
">  c gray6",
",  c #101010",
"<  c #111111",
"1  c gray7",
"2  c #131313",
"3  c gray8",
"4  c #151515",
"5  c #161616",
"6  c gray9",
"7  c #181818",
"8  c #191919",
"9  c gray10",
"0  c #1B1B1B",
"q  c gray11",
"w  c #1D1D1D",
"e  c #1E1E1E",
"r  c gray12",
"t  c #202020",
"y  c gray13",
"u  c #222222",
"i  c #232323",
"p  c gray14",
"a  c #252525",
"s  c gray15",
"d  c #272727",
"f  c #282828",
"g  c gray16",
"h  c #2A2A2A",
"j  c gray17",
"k  c #2C2C2C",
"l  c #2D2D2D",
"z  c gray18",
"x  c #2F2F2F",
"c  c gray19",
"v  c #313131",
"b  c #323232",
"n  c gray20",
"m  c #343434",
"M  c #353535",
"N  c gray21",
"B  c gray22",
"V  c #393939",
"C  c #3A3A3A",
"Z  c #3C3C3C",
"A  c gray24",
"S  c #3E3E3E",
"D  c #3F3F3F",
"F  c gray25",
"G  c #414141",
"H  c #434343",
"J  c #444444",
"K  c gray27",
"L  c #464646",
"P  c gray28",
"I  c #484848",
"U  c #494949",
"Y  c gray29",
"T  c #4B4B4B",
"R  c #4C4C4C",
"E  c gray30",
"W  c #4E4E4E",
"Q  c gray31",
"!  c #505050",
"~  c gray32",
"^  c #535353",
"/  c gray33",
"(  c #555555",
")  c #565656",
"_  c gray34",
"`  c #585858",
"'  c gray35",
"]  c #5A5A5A",
"[  c #5B5B5B",
"{  c gray36",
"}  c #5D5D5D",
"|  c gray37",
" . c #5F5F5F",
".. c #606060",
"X. c gray38",
"o. c #626262",
"O. c gray39",
"+. c #646464",
"@. c #656565",
"#. c gray40",
"$. c #676767",
"%. c #686868",
"&. c DimGray",
"*. c #6A6A6A",
"=. c gray42",
"-. c #6C6C6C",
";. c #6D6D6D",
":. c gray43",
">. c #6F6F6F",
",. c gray44",
"<. c #717171",
"1. c #727272",
"2. c gray45",
"3. c #747474",
"4. c gray46",
"5. c #767676",
"6. c #777777",
"7. c gray47",
"8. c #797979",
"9. c gray48",
"0. c #7B7B7B",
"q. c #7C7C7C",
"w. c gray49",
"e. c #7E7E7E",
"r. c gray50",
"t. c #818181",
"y. c #838383",
"u. c #848484",
"i. c gray52",
"p. c #868686",
"a. c gray53",
"s. c #888888",
"d. c #898989",
"f. c gray54",
"g. c #8B8B8B",
"h. c gray55",
"j. c #8D8D8D",
"k. c #8E8E8E",
"l. c gray56",
"z. c #909090",
"x. c #929292",
"c. c #939393",
"v. c gray58",
"b. c #959595",
"n. c gray59",
"m. c #979797",
"M. c gray60",
"N. c #9A9A9A",
"B. c #9B9B9B",
"V. c gray61",
"C. c #9D9D9D",
"Z. c gray62",
"A. c #9F9F9F",
"S. c #A0A0A0",
"D. c gray63",
"F. c #A2A2A2",
"G. c gray64",
"H. c #A4A4A4",
"J. c #A5A5A5",
"K. c gray65",
"L. c #A7A7A7",
"P. c gray66",
"I. c #A9A9A9",
"U. c #AAAAAA",
"Y. c gray67",
"T. c #ACACAC",
"R. c gray68",
"E. c #AEAEAE",
"W. c #AFAFAF",
"Q. c gray69",
"!. c #B1B1B1",
"~. c #B2B2B2",
"^. c gray70",
"/. c #B4B4B4",
"(. c gray71",
"). c #B6B6B6",
"_. c #B7B7B7",
"`. c gray72",
"'. c #B9B9B9",
"]. c gray73",
"[. c #BBBBBB",
"{. c #BCBCBC",
"}. c gray74",
"|. c gray",
" X c gray75",
".X c #C0C0C0",
"XX c #C1C1C1",
"oX c gray76",
"OX c #C3C3C3",
"+X c gray77",
"@X c #C5C5C5",
"#X c #C6C6C6",
"$X c gray78",
"%X c #C8C8C8",
"&X c gray79",
"*X c #CACACA",
"=X c #CBCBCB",
"-X c gray80",
";X c #CDCDCD",
":X c #CECECE",
">X c gray81",
",X c #D0D0D0",
"<X c #D2D2D2",
"1X c LightGray",
"2X c gray83",
"3X c #D5D5D5",
"4X c gray84",
"5X c #D7D7D7",
"6X c #D8D8D8",
"7X c gray85",
"8X c #DADADA",
"9X c gray86",
"0X c gainsboro",
"qX c #DDDDDD",
"wX c gray87",
"eX c #DFDFDF",
"rX c #E1E1E1",
"tX c #E2E2E2",
"yX c gray89",
"uX c #E4E4E4",
"iX c gray90",
"pX c #E6E6E6",
"aX c #E7E7E7",
"sX c gray91",
"dX c #E9E9E9",
"fX c #EAEAEA",
"gX c gray92",
"hX c #ECECEC",
"jX c gray93",
"kX c #EEEEEE",
"lX c #EFEFEF",
"zX c gray94",
"xX c #F1F1F1",
"cX c gray95",
"vX c #F3F3F3",
"bX c #F4F4F4",
"nX c gray96",
"mX c #F6F6F6",
"MX c gray97",
"NX c #F8F8F8",
"BX c #F9F9F9",
"VX c gray98",
"CX c #FBFBFB",
"ZX c gray99",
"AX c #FDFDFD",
"SX c #FEFEFE",
"DX c white",
/* pixels */
"                              @.. . . . . . . . . . . . . . . . . . . . . .                         ",
"                              X.. . . . . . . . . . . . . . . . . . . . . %                         ",
"                              / . . . . . . . . . . . . . . . . . . . . . w                         ",
"                         .E /  .*.>.1.1.>.>.*. .] ]  .X.*.@.X.X.@.>.*.*.@.@.] E ^ q.                ",
"                      8.. . % X.XX;XXXXXXXXXXXXX X]. XXX+X+XXX+X+X+XXX%X;XG.v . . a                 ",
"                      3.. . % *.%X;X].].].(.(.].].].Q.(.]. X X].].].].;X0XQ.M . . u                 ",
"                      1.Y M Y y.(.].T.H.G.G.H.Y.T.T.H.H.H.T.T.Y.G.Z.H.(.XXQ.8.J M J *.y.g.          ",
"                a % , / H.Q.Z.G.T.Q.T.H.G.G.H.H.H.Y.G.G.G.H.Y.G.Z.M.G.T.Q.(.(.XX Xg.v % @ v         ",
"                4 . . J ].;X].Y.Y.Y.Y.H.H.H.H.H.H.Y.H.G.H.Y.Y.G.Z.G.H.Y.G.H.].8XiXY.x . . w         ",
"              *., . . ] ;X0X+XT.H.H.H.H.Y.T.T.Y.Y.Y.Y.H.Y.T.T.H.Y.Y.T.Y.G.Z.H.XX;XZ.M . . f         ",
"        G w 7 , . . . 3.cXBXyX(.M.Z.H.Y.Y.Y.Y.H.H.Y.H.H.H.Y.Y.Y.Y.H.Y.Y.G.G.Y.%X1XH.G @ . x         ",
"        4 . . . . . . >.MXDXlX].g.x.H.H.G.Z.G.Y.T.Y.Y.H.H.H.H.H.H.H.H.Y.H.T.].0XsX(.J @ . M         ",
"        x 7 7 w , % 7 u.lXDXcX%XH.H.Q.T.Z.Z.G.T.T.Y.Y.H.H.Y.H.H.G.G.H.Y.Q.Q.Y.(. Xj.M @ . v         ",
"/ E E >.G. X XT.m.g.H.8XDXDXBXlXiXiX2X].G.G.H.T.T.Y.Y.Y.T.Q.T.Y.H.H.T. X+XT.*.C v f , . . , M Y J G ",
". . . / sXDXDXDXDXDXDXDXDXDXDXDXDXDXMX+XH.H.Q. XXX X(.(.(.XXXX].(.(.+X8XiXQ.C . . . . @ % @ . . . . ",
". . @ ^ 0XDXDXDXDXBXBXBXDXDXDXBXDXDXcX;XT.H.T.(.XX+X X(.(.XX+X+X X XXX;X2XG.M . . . . @ % @ . . . . ",
"q.1.>.1.q.u.j.j.u.8.j.(.0XiXyX8X8X8X%X].Q.T.m.3.>.3.y.q.q.y.u.g.g.q.1.1.1. .f % . @ . . @ @ . . . . ",
"      m.7 . . @ . . @ Y M.T.Y.Y.]. XQ.Y.Q.T.>.7 . . @ % @ . . . . . . @ > > > % % % @ . . . . @ @ @ ",
"      m., . . . . . . M x.Y.G.Y.].].Q.Y.(.Y. .% . . . . . . . . . . . . . . . . @ @ @ . . . @ @ . @ ",
"        ] x x 7 . . %  .%XiX+Xm.1.>.g.Q.2X1XZ.] A v 4 . . . . . . . . . . . . @ @ @ % @ @ . . @ @ . ",
"              1.4 . % q.cXDX8X@.> % C T.MXDXcXyXyX2Xg.7 . . . . . . . . . . . % % % > % . . . . . . ",
"                w . % u.DXDX0XE . . u H.BXDXDXDXDXDX+Xf . . . . . . . . . . . @ % % > % . . . . . . ",
"                w . @ g.DXDX0X/ @ . u H.MXDXDXDXDXDX+X7 . . @ > % % % % 4 > @ . @ . . . . . % % % @ ",
"                4 . @ u.DXDX0X/ . . u H.BXDXDXDXDXDX X> . @ G x.Y.H.M.Y.(.M.C . . . . . . 4 3.H.Z.M.",
"                4 . @ u.DXDX2XJ . . w Z.MXDXDXBXDXDXH.% . % @.yXDXDXBXDXDXMX1.@ . . . . . u         ",
"                7 . @ q.BXDX2XE . . u G.MXDXMXDXDXMXG.> . % @.iXDXDXDXDXDXcX1.@ . . . @ @ M         ",
"                7 . @ y.MXDXlXH.] E 8.;XBXDXBXBXDXBX1X8.E  .H.lXDXDXDXDXDXiX .. . , J *.*.j.        ",
"              H., . . u.DXDXDXBXMXsXlXMXBXDXDXDXDXDXDXMXlXlXMXDXDXDXDXDXDXcX] . . v                 ",
"              m.> . . g.BXDXDXDXDXDXDXBXBXDXDXDXBXBXDXDXDXDXDXDXDXDXDXDXDXMXX.. . v                 ",
"                E v G q.Y.Q. X8XsXsXlXBXDXDXBXMXMXBXDXDXDXBXiX X(.+X%X;X%XQ.*.f u G u.Q.            ",
"                      >., . a q.XX%X2XcXDXDXDXBXBXDXDXDXDXMXY.x @ % 7 , > f >.T.(.q.M % . Y         ",
"                      @.. . . ]  X;X2XcXDXDXDXDXDXDXDXDXDXBXZ.7 . . . . . . ] 8XMXG.f . . w         ",
"                      u.w @ u  .m.G.T.2XMXDXDXDXDXDXDXDXDXsXg.4 . @ @ . . @ ] %XsXZ.v . . w         ",
"                            Z.X.f a C Y E E J J J E E / X. .v % . . . . . % X.;XiXG.C @ . u         ",
"                              1.@ . . @ @ . . . . . . . . @ . . . . . . . . X.sXMX].J % . u         ",
"                              >.@ . . . . . . . . . . . . . . . . . . . . > X.;XiXH.A @ . w         ",
"                m.q.u.x.G.  u.A @ . . . . . . . . . . . . @ f X.1.X. .@.3.1. . .X.E w . . u         ",
"              G.7 . . > > , , @ . . . . . . @ . . . . . . % X.8XBXMXcXBXDXyX@.% . @ . . . a         ",
"              j., . . . . . . . . . . . . . . . . . . . . % @.iXDXDXDXDXDXMXX.. . . . . . x         ",
"              q.M 7 w a v v u % . . @ 7 u u 7 w f f 7 @ . @ X.yXDXDXDXDXDXlXX.. . % w u 4 G M.      ",
"        C w a / m.Y.G.Z.Y.T.8.u . . 7 @.Y.(.T.T.].T.@., . % >.sXDXDXDXDXDXcXX.. . 4 @.H.Y.*.M f f a ",
"      j., . @ A +XBXlX2XiXlXT.f . . w x.lXDXMXBXDXcXM.a . > q.lXDXDXDXDXDXcX .. . 4 q.sXBXg.w . . . ",
"        v 4 7 Y j.Y.Y.T.;X8XY.J > % f 3.Y.(.Y.T.XX X3.w . >  .%XlXlXsXsXsX;XX.> % a q.8XlXj.a . . . ",
"              >.x w x >.Q.%XQ.g.3.3.>.Y x a f x C A a @ . . w Y X./ E Y J / >.8.>.3.Z.;X0Xj.a . . . ",
"              u.> . . J ].0X8X8XBXBXQ.C @ . . . . . . . . . . . . . . . . . @.0XcX8X2XsXlXj.u . . . ",
"              M.4 . % Y H.;X;X2XiXyXH.M @ . . % % @ . @ @ % @ @ @ @ % > % > ] (.0X1X+X;X;Xu.f @ . . ",
"                u.1.1. .E ^ ] X.>.*.E 7 . . 7 X.g.u.8.q.8.q.q.q.8.8.q.u.g.3.] Y ^ / / ^ ^ @.3.8.q.q.",
"                      q.@ . . @ @ % @ . . . f                               *.@ . . . . . C         ",
"                      x.. . . . . . . . . . 7                               >.. . . . . . a         ",
"                      M.. . . . @ . . . . . >                               @.. . . . . . u         "
};
