/* XPM */
static char *_a7c4259efeb4520955c08baab5996b70LGJNEe5A1DIdPq6[] = {
/* columns rows colors chars-per-pixel */
"50 50 103 2 ",
"   c None",
".  c black",
"X  c #040404",
"o  c gray2",
"O  c #060606",
"+  c gray3",
"@  c gray12",
"#  c gray14",
"$  c #252525",
"%  c #2A2A2A",
"&  c gray17",
"*  c #2C2C2C",
"=  c #2D2D2D",
"-  c #373737",
";  c gray23",
":  c #3E3E3E",
">  c gray25",
",  c #414141",
"<  c gray26",
"1  c #434343",
"2  c #444444",
"3  c gray27",
"4  c gray28",
"5  c #484848",
"6  c gray29",
"7  c gray31",
"8  c gray32",
"9  c #535353",
"0  c #555555",
"q  c gray35",
"w  c #5A5A5A",
"e  c #5D5D5D",
"r  c gray38",
"t  c #626262",
"y  c gray39",
"u  c #656565",
"i  c gray40",
"p  c #676767",
"a  c DimGray",
"s  c gray42",
"d  c #6D6D6D",
"f  c gray44",
"g  c #727272",
"h  c gray45",
"j  c gray46",
"k  c #767676",
"l  c #777777",
"z  c #808080",
"x  c gray52",
"c  c #8B8B8B",
"v  c gray55",
"b  c #8E8E8E",
"n  c gray56",
"m  c #929292",
"M  c #939393",
"N  c #979797",
"B  c #989898",
"V  c #9A9A9A",
"C  c #9B9B9B",
"Z  c gray61",
"A  c #9D9D9D",
"S  c gray62",
"D  c #9F9F9F",
"F  c #A0A0A0",
"G  c gray63",
"H  c #A2A2A2",
"J  c gray64",
"K  c gray65",
"L  c gray66",
"P  c #AAAAAA",
"I  c gray67",
"U  c #ACACAC",
"Y  c gray68",
"T  c #AFAFAF",
"R  c #B2B2B2",
"E  c #B4B4B4",
"W  c gray71",
"Q  c #B6B6B6",
"!  c #B7B7B7",
"~  c gray72",
"^  c #BBBBBB",
"/  c #BCBCBC",
"(  c gray74",
")  c gray75",
"_  c #C0C0C0",
"`  c #C6C6C6",
"'  c gray78",
"]  c #CECECE",
"[  c #D0D0D0",
"{  c #D2D2D2",
"}  c #DFDFDF",
"|  c gray88",
" . c #EAEAEA",
".. c #ECECEC",
"X. c gray93",
"o. c #F3F3F3",
"O. c gray97",
"+. c #F8F8F8",
"@. c gray98",
"#. c #FBFBFB",
"$. c gray99",
"%. c #FEFEFE",
"&. c white",
/* pixels */
"                                                                                                    ",
"                                                                                                    ",
"                                                                                                    ",
"                                                                                                    ",
"                                                                                                    ",
"                                                                                                    ",
"                                                                                                    ",
"                                                                                                    ",
"                                                                                                    ",
"                                                                                                    ",
"                                                                                                    ",
"                                                                                                    ",
"                                                                                                    ",
"                                                                                                    ",
"                                          e O + + + + O -                                           ",
"                                          w & & & & & * 5                                           ",
"                                    . . . d W K H H H R b . . . $                                   ",
"                                  t 3 3 3 z H W _ ( ( H b < 3 3 0                                   ",
"                                . 3 ( U U H C ..&.&.+.Z Z U U ( t .                                 ",
"                                . 3 I C C Z N  .&.&.o.Z C C C I w .                                 ",
"                                . < U Z Z Z N ..&.&.O.Z C Z Z U w .                                 ",
"                            8 w k x H Z H Z C R ~ ~ W Z Z Z Z H b k e 5                             ",
"                            . $ W H Z Z Z Z Z C N N C Z Z Z Z Z H W < .                             ",
"                            + & K C C C Z Z H Z Z Z Z H Z Z Z C C K < .                             ",
"                            + * U H K Z Z Z Z Z Z Z Z Z Z Z Z H H U 3 .                             ",
"                            . < +.+.+.` m C C C C Z C C Z N R +.+.+.s .                             ",
"                            O < &.&.&.] Z I I K K K K K K Z ( &.&.&.s .                             ",
"                            . : &.&.&.&.+.+.+.+.+.&.+.+.+.+.&.&.&.&.s .                             ",
"                            : t W { &.&.&.&.&.&.&.&.&.&.&.&.&.&.} R g ;                             ",
"                                . t &.&.&.&.&.+.+.&.&.&.&.&.&.&.b .                                 ",
"                                . i &.&.&.&.+.&.&.&.&.&.&.&.&.&.b .                                 ",
"                                . i &.&.&.&.&.&.&.&.&.+.&.&.&.&.m .                                 ",
"                                  i k k d ] &.&.&.&.&.&.| g g k i                                   ",
"                                    . . . H &.&.&.&.&.&.' . . . @                                   ",
"                                          d 0 7 7 7 7 8 t                                           ",
"                                          0 . . . . . . *                                           ",
"                                                                                                    ",
"                                                                                                    ",
"                                                                                                    ",
"                                                                                                    ",
"                                                                                                    ",
"                                                                                                    ",
"                                                                                                    ",
"                                                                                                    ",
"                                                                                                    ",
"                                                                                                    ",
"                                                                                                    ",
"                                                                                                    ",
"                                                                                                    ",
"                                                                                                    "
};
