/* XPM */
static char *e11c9674df9a435cba8b5605bdc25745OTHXCwc3vZhL9cxl[] = {
/* columns rows colors chars-per-pixel */
"50 50 252 2 ",
"   c None",
".  c black",
"X  c #010101",
"o  c #020202",
"O  c gray1",
"+  c #040404",
"@  c gray2",
"#  c #060606",
"$  c #070707",
"%  c gray3",
"&  c #090909",
"*  c gray4",
"=  c #0B0B0B",
"-  c #0C0C0C",
";  c gray5",
":  c #0E0E0E",
">  c gray6",
",  c #101010",
"<  c #111111",
"1  c gray7",
"2  c #131313",
"3  c gray8",
"4  c #151515",
"5  c #161616",
"6  c gray9",
"7  c #181818",
"8  c #191919",
"9  c gray10",
"0  c #1B1B1B",
"q  c gray11",
"w  c #1D1D1D",
"e  c #1E1E1E",
"r  c gray12",
"t  c #202020",
"y  c gray13",
"u  c #222222",
"i  c #232323",
"p  c gray14",
"a  c #252525",
"s  c gray15",
"d  c #272727",
"f  c #282828",
"g  c gray16",
"h  c #2A2A2A",
"j  c gray17",
"k  c #2C2C2C",
"l  c #2D2D2D",
"z  c gray18",
"x  c #2F2F2F",
"c  c gray19",
"v  c #313131",
"b  c #323232",
"n  c gray20",
"m  c #343434",
"M  c #353535",
"N  c gray21",
"B  c #373737",
"V  c gray22",
"C  c #393939",
"Z  c #3A3A3A",
"A  c gray23",
"S  c #3C3C3C",
"D  c #3E3E3E",
"F  c #3F3F3F",
"G  c gray25",
"H  c #414141",
"J  c gray26",
"K  c #434343",
"L  c #444444",
"P  c gray27",
"I  c #464646",
"U  c gray28",
"Y  c #484848",
"T  c #494949",
"R  c gray29",
"E  c #4B4B4B",
"W  c #4C4C4C",
"Q  c gray30",
"!  c #4E4E4E",
"~  c gray31",
"^  c #505050",
"/  c #515151",
"(  c gray32",
")  c #535353",
"_  c gray33",
"`  c #555555",
"'  c #565656",
"]  c gray34",
"[  c #585858",
"{  c gray35",
"}  c #5A5A5A",
"|  c #5B5B5B",
" . c #5D5D5D",
".. c gray37",
"X. c #5F5F5F",
"o. c #606060",
"O. c gray38",
"+. c #626262",
"@. c gray39",
"#. c #646464",
"$. c #656565",
"%. c gray40",
"&. c #676767",
"*. c #686868",
"=. c DimGray",
"-. c #6A6A6A",
";. c gray42",
":. c #6C6C6C",
">. c #6D6D6D",
",. c gray43",
"<. c #6F6F6F",
"1. c gray44",
"2. c #717171",
"3. c #727272",
"4. c gray45",
"5. c #747474",
"6. c gray46",
"7. c #767676",
"8. c #777777",
"9. c gray47",
"0. c #797979",
"q. c gray48",
"w. c #7B7B7B",
"e. c #7C7C7C",
"r. c gray49",
"t. c #7E7E7E",
"y. c gray50",
"u. c #808080",
"i. c #818181",
"p. c gray51",
"a. c #838383",
"s. c #848484",
"d. c gray52",
"f. c #868686",
"g. c gray53",
"h. c #888888",
"j. c #898989",
"k. c gray54",
"l. c #8B8B8B",
"z. c #8D8D8D",
"x. c #8E8E8E",
"c. c gray56",
"v. c #909090",
"b. c gray57",
"n. c #929292",
"m. c #939393",
"M. c gray58",
"N. c #959595",
"B. c gray59",
"V. c #979797",
"C. c #989898",
"Z. c gray60",
"A. c #9A9A9A",
"S. c #9B9B9B",
"D. c gray61",
"F. c #9D9D9D",
"G. c gray62",
"H. c #9F9F9F",
"J. c #A0A0A0",
"K. c gray63",
"L. c #A2A2A2",
"P. c gray64",
"I. c #A4A4A4",
"U. c #A5A5A5",
"Y. c gray65",
"T. c #A7A7A7",
"R. c gray66",
"E. c #A9A9A9",
"W. c #AAAAAA",
"Q. c gray67",
"!. c #ACACAC",
"~. c gray68",
"^. c #AEAEAE",
"/. c #AFAFAF",
"(. c gray69",
"). c #B1B1B1",
"_. c #B2B2B2",
"`. c gray70",
"'. c #B4B4B4",
"]. c gray71",
"[. c #B6B6B6",
"{. c #B7B7B7",
"}. c gray72",
"|. c #B9B9B9",
" X c gray73",
".X c #BBBBBB",
"XX c #BCBCBC",
"oX c gray74",
"OX c gray",
"+X c gray75",
"@X c #C0C0C0",
"#X c #C1C1C1",
"$X c gray76",
"%X c #C3C3C3",
"&X c gray77",
"*X c #C5C5C5",
"=X c gray78",
"-X c #C8C8C8",
";X c gray79",
":X c #CACACA",
">X c #CBCBCB",
",X c gray80",
"<X c #CECECE",
"1X c gray81",
"2X c #D0D0D0",
"3X c gray82",
"4X c #D2D2D2",
"5X c LightGray",
"6X c gray83",
"7X c #D5D5D5",
"8X c gray84",
"9X c #D7D7D7",
"0X c #D8D8D8",
"qX c gray85",
"wX c #DADADA",
"eX c gray86",
"rX c gainsboro",
"tX c #DDDDDD",
"yX c gray87",
"uX c #DFDFDF",
"iX c gray88",
"pX c #E1E1E1",
"aX c #E2E2E2",
"sX c gray89",
"dX c #E4E4E4",
"fX c gray90",
"gX c #E6E6E6",
"hX c #E7E7E7",
"jX c gray91",
"kX c #E9E9E9",
"lX c #EAEAEA",
"zX c gray92",
"xX c #ECECEC",
"cX c gray93",
"vX c #EEEEEE",
"bX c #EFEFEF",
"nX c gray94",
"mX c #F1F1F1",
"MX c gray95",
"NX c #F3F3F3",
"BX c #F4F4F4",
"VX c gray96",
"CX c #F6F6F6",
"ZX c gray97",
"AX c #F8F8F8",
"SX c #F9F9F9",
"DX c gray98",
"FX c #FBFBFB",
"GX c gray99",
"HX c #FDFDFD",
"JX c #FEFEFE",
"KX c white",
/* pixels */
"                        . . . . . . . . . . . . . . . . . . . . . . 1.                              ",
"                      x.. . . . . . . . . . . . . . . . . . . . . . 9.                              ",
"                      t.% . . . . . . . . . . . . . . . . . . . . @ 9.                              ",
"                -.] } %.%.%.>.8.9.1.>.1.1.>.-.-.>.1.>.>.1.8.8.>.%.X.X./ / >.                        ",
"                1 . . W ].1X;X*X*XOX].OXOX%X%X%X%XOX|.].OX%X*X1X6X(.R . . -                         ",
"              x.3 . . / OX6X%X].].(././.(.(.|.].(./././.(.].].*XyX*X] . . % C.                      ",
"          x.k.1.P m P t./.]./.I.W./.W.I.I.I./.W.I.L.I./.W.W.I./.|.].t.R m P -.a.k.                  ",
"        f % 1 R G.|./.I.I.I.I.I./.(./.I.I.W.W.W.W.I.W.(.(./.I.W.W.W.I.W.].v.C % % H                 ",
"        1 . @ H ].yX;X/.W.I.I.W.W././.W.I.W.W./.W.W.W./././.I.I.I.I./.*X0X(.m . . n                 ",
"        0 . @ P I.%X].W.W.I.I.I.I.W.I.I.I.W././.W.I.I.I.I.I.I.L.L.I.].6XbX*XP . . w 9.              ",
"        0 . % / W.%X|./.(./.I.I.W.W.W.I.I.W.W.W.I.I.I.I.W.I.I.G.N.L.;XNXJXgX/ . . @ - 0 0 /         ",
"        w . % @.%XyX;X|.|.(.W.L.L.L.I.W.W.I.W.I.W.W.I.W.W.W.L.v.f.N.1XSXJXbXW . . . . . . 0         ",
"        w . % W G.].W./.|.].W.L.G.G.L.W./.W.I.I.I.W.I.I.W.W.W.L.C.W.6XSXJXgX-.0 1 3 0 3 3 C         ",
"P W W n - . . 3 s s C 8.(.|./.W.I.I.W.(.(./.I.W.W./.I.L.G./.%X3X0XsXNXJXJXZX1XW.L./.(.].|.v.@.W R / ",
". . . . . . . . . . . ] OX3X%X|.OXOXOXOX|.].(.].OXOX(.L.C.W.0XSXJXJXJXJXJXJXJXJXJXJXJXJXJX0XD . . . ",
". . . . . @ @ . . . . / OX3X%X].OX*X%XOX|.|.OXOX%XOX|.I.G.W.6XZXJXSXSXJXJXJXSXZXNXZXJXJXJX3XD . . . ",
". . . . @ . . . . . . x >.9.1.1.t.a.f.a.a.a.9.1.%.%.a.I././.OX3X6X1X3XsXkXyX(.k.t.f.k.k.x.k.9.8.8.8.",
". . . @ @ @ . . . . . . - % @ . . . . . . . . . . . s k.(./.W.|.%X].I.W./.x.D @ . @ . . . f         ",
". . . . @ . . . . @ . @ . . . . . . . . . . . . . . 3 8./.W.W.].%X|.I.L./.k.s . . . . . . 0         ",
". . . @ . @ @ . . . @ . . . . . . . . . . . . w x m X.W.3X;XG.t.1.a.I.6XbXOXR . . @ t f t @.        ",
". . . . @ % @ . . . . @ . . . . . . . . . . f I.6X0XyXNXJXbXN.f % w k.bXJXsX%.. . s N.              ",
". . . . . @ @ @ . . . . . . . . . . . . . . H 0XJXJXJXJXJXSXC.0 . . 8.ZXJXkX1.. . x                 ",
"% % % % . . . . . . . @ % - % % % - 1 . . . m ;XJXJXJXJXJXSXL.0 . @ 8.NXJXsX%.. . f                 ",
"I.W.L.X.- . . . . . @ R G./.L.C.W.(.f.s . . s %XJXJXJXJXJXSXC.0 . . 1.bXJXsX%.. . s                 ",
"      G.3 . . . . . - N.JXJXJXSXJXJX3XD . . 1 ].JXJXJXJXJXZXk.1 . . X.sXJXkX%.. . s                 ",
"      /.t @ % . . . - N.JXJXJXJXJXJX0XR . . 0 ].SXJXJXJXJXNXk.3 . @ @.yXJXbX-.. . s                 ",
"        v.9.1.C @ . @ f.SXJXJXJXJXJXkXG.} W k.0XJXJXZXSXJXSX%X%.P @.].ZXJXbX%.. . s                 ",
"              N.0 . @ x.JXJXJXJXJXJXJXZXNXbXNXJXJXSXbXbXJXJXSXkXgXNXSXJXJXbXX.. . t                 ",
"              I.0 . @ x.JXJXJXJXJXJXSXJXJXJXJXJXJXSXNXZXSXJXJXJXJXJXJXJXJXbX} . . w L.              ",
"              a.C w s 8.OX;X*X%X|./.%XkXJXJXJXJXJXSXZXSXJXJXZXNXNXkX6X%X|.(.1.m x /                 ",
"        m . 1 } C./.k.R t 3 3 1 . % P *XJXJXJXJXJXJXJXJXJXJXkX6X3X|.%.3 . f v.                      ",
"      I.0 . @ P *XSX|.C . . . . . . f %XJXJXJXJXJXJXJXJXJXJXNX0X3XW.D . . . k.                      ",
"        0 . @ H %XZXOXH . . . . . . s I.ZXZXbXNXJXJXJXJXJXSXyX|.I.x.W 3 @ t C.                      ",
"        t . @ P ].bX%XR . . . . . . - m } ] R R R P P R W W H f t m 9.W.                            ",
"        w . % ] ;XJX;XP . . . . . . . . . . . @ . . . . . . . . . % N.                              ",
"        0 . % / OXgX].H . . . @ @ % @ . . . . . . . . . . . . . . % f.                              ",
"        0 . @ t W X.} @.>.%.@.@.9.k.X.w . . . . . . . . . . . . . @ C f.I.G.v.t.9.I.                ",
"        0 . . . @ . - a.bXSXZXNXJXJX3X/ @ . . . . . . . . . . @ . . . % 1 - % . @ m                 ",
"        0 . . . . . . f.JXJXJXJXJXJXsX@.@ . . . . . . . . . . . . . . . . . . . . t                 ",
"      N.H t s 1 . . % a.ZXJXJXJXJXJX0XW @ . @ t f w 3 w f s 1 . . . 1 x n s w 3 0 m a.              ",
"f f f R k.|.L.P % . - k.SXJXJXJXJXJX0XW . . n k.].W.G.W.|.G.R - . @ H N.W.G.C.I.L.9.C t t W         ",
". . . f /.SXyX] @ . % v.JXJXJXJXJXJXsX} @ . D |.JXSXbXJXJXgX>.- . . W %XsX0XyXJXZXI.s . . 0 I.      ",
". . . n I.NX1X%.0 - 3 f.gXkXkXbXbXbX%XP @ . s t.].].W.].*X(.-.w % 1 ] /.;X%X(.].(.f.C 3 1 D         ",
". . . n G.0X;XG.t.9.8.X.W P R W X.-.R 0 . . @ s m m x n x C ] -.>.1.k.(.;XI.X.f t P f.I.I.          ",
". . . x I.bXgX0XbXJX3XR . . . . . . . . . . . . . . . . . % / OXZXkX3XsXkXW.x . . w                 ",
". . % m v.;X;X%X1XyX|./ 1 % - % @ . . @ . . . @ % - % . . % R /.yX6X;X3X6XG.C @ . f                 ",
"t.t.t.>./ W ] } W W ] >.f.  a.9.8.9.a.a.a.t.9.t.    / @ . @ s ] %.@.} ] / X.1.1.>.k.                ",
"        w . . @ . . %                                 0 . . . % - % . . . 0 G.                      ",
"        0 . . . . . . t.                              3 . . . . . . . . . . I.                      ",
"        0 . . . . . . 8.                              - . . . . . . . . . . L.                      "
};
