/* XPM */
static char *_649850dbe7842cefb237cd1e66153dbnKGHOycLQn5ESupt[] = {
/* columns rows colors chars-per-pixel */
"50 50 121 2 ",
"   c #010101",
".  c #070807",
"X  c #0B0B0B",
"o  c #131313",
"O  c #171817",
"+  c #181718",
"@  c #1B1C1B",
"#  c #1E201E",
"$  c #201F20",
"%  c #232323",
"&  c #272927",
"*  c #292729",
"=  c #2C2C2C",
"-  c #2F312F",
";  c #312F31",
":  c #343434",
">  c #373937",
",  c #383538",
"<  c #3C3C3C",
"1  c #3F403F",
"2  c #434443",
"3  c #454945",
"4  c #484748",
"5  c #4C4C4C",
"6  c #4F514F",
"7  c #535353",
"8  c #565A56",
"9  c #595659",
"0  c #5B5B5B",
"q  c #5D625D",
"w  c #605F60",
"e  c #636463",
"r  c #666A66",
"t  c #696669",
"y  c #6C6C6C",
"u  c #6D726D",
"i  c #716F71",
"p  c #747474",
"a  c #757A75",
"s  c #797779",
"d  c #7C7C7C",
"f  c #7E817E",
"g  c #817F81",
"h  c #848484",
"j  c #858985",
"k  c #898689",
"l  c #8B8B8B",
"z  c #8D918D",
"x  c #908E90",
"c  c #939493",
"v  c #969A96",
"b  c #989698",
"n  c #9B9C9B",
"m  c #9EA29E",
"M  c #A29DA2",
"N  c #A3A5A3",
"B  c #A5AAA5",
"V  c #AAA6AA",
"C  c #ABADAB",
"Z  c #A5B1A5",
"A  c #ACB4AC",
"S  c #AEB9AE",
"D  c #B0AEB0",
"F  c #B3B4B3",
"G  c #B4BCB4",
"H  c #B8B7B8",
"J  c #B9BCB9",
"K  c #B6C1B6",
"L  c #BCC4BC",
"P  c #BFC9BF",
"I  c #C1BDC1",
"U  c #C3C5C3",
"Y  c #C4CBC4",
"T  c #CBC5CB",
"R  c #CACDCA",
"E  c #C7D1C7",
"W  c #CCD3CC",
"Q  c #CED8CE",
"!  c #D2CDD2",
"~  c #D3D4D3",
"^  c #D4DAD4",
"/  c #D9D5D9",
"(  c #DBDCDB",
")  c #D6E1D6",
"_  c #DBE3DB",
"`  c #DFEBDF",
"'  c #E0DEE0",
"]  c #E2E1E2",
"[  c #E3E3E3",
"{  c #E4E4E4",
"}  c #E6E4E6",
"|  c #E2ECE2",
" . c #E4E9E4",
".. c #E4EBE4",
"X. c #E8E4E8",
"o. c #EAE7EA",
"O. c #EDE5ED",
"+. c #E9E8E9",
"@. c #EFEAEF",
"#. c #ECECEC",
"$. c #EEEDEE",
"%. c #E5F0E5",
"&. c #EAF4EA",
"*. c #EEF3EE",
"=. c #EFF9EF",
"-. c #F1EEF1",
";. c #F2EDF2",
":. c #F5EFF5",
">. c #F1F1F1",
",. c #F5F0F5",
"<. c #F4F3F4",
"1. c #F7F5F7",
"2. c #F3FAF3",
"3. c #F1FDF1",
"4. c #FAF3FA",
"5. c #FBF6FB",
"6. c #FDF7FD",
"7. c #FAF8FA",
"8. c #FEF9FE",
"9. c gray99",
"0. c white",
/* pixels */
"L K G G ^ 7.0.$.Y K ^ 4.0.1. ...G >                       = d l J 4.0.1.W G W ,.0.1.W A L +.0.8.( G ",
"K K G G ^ 8.0.>.R K ( 0.0.0.*.3.L >                       = h b T 8.0.0.^ K W 1.0.1.E Z K +.0.0.( K ",
"Y Y U Y ( 1.0.} K A U ;.8.o.J F v 1 X X o o . . . o o o @ 2 e u n / O.( L S Y @.0.,.~ Y R } 6.,.( R ",
":.;.,.:.] ^ ~ H z h l B F l < + = a v m H ! ! ! T T T ! ! d @ X $ : , 7 h c m U ^ ( +.1.>.( R W ] >.",
"0.0.0.0.} K S v i e i h c 0 .   X j `  .0.0.0.0.0.0.0.0.0.l X         + y b v A L E ,.0.0.( Z K } 0.",
"0.8.4.4.] E Y A l d d p p 8 @   # c _ _ >.0.0.0.0.8.0.0.0.n * X X     + 0 s h S Y W o.4.;.~ G K ] 0.",
"6.o.W W ( $.>.( K K z > O > u f v ~ >.;.4.8.8.8.0.8.$.^ ^ T I I i o   X + + 2 A _ Y C M V G L Y  .0.",
"4.^ Z Z ^ 0.0.4.| ` m @   % m ` _ 3.0.0.8.8.8.8.0.0._ Z A } 0.8.C @         % B 3.Y h 7 y B E W o.0.",
"4.( G G ( 8.0.;.( ) c %   & B %.] ;.0.0.8.8.8.8.8.4.( K K ] 0.0.V * . .     % m ..U h r d N K Y ] 0.",
"6.4.o.} _ ] ] Y B B p @   ; H ,.*.4.8.8.8.0.8.+.~ ~ ] #.$.R H D C V C i +   @ d H B B A B m k b / 4.",
"0.0.0.0.$.W Y A b c 0 o   ; I 0.0.8.8.0.0.0.0.~ Z A ^ 0.0.I 0 4 D 0.0.I ;   o e c v Y ..W l 7 e U 9.",
"8.0.0.0.+.E P A l h 8 X   ; U 0.0.8.8.8.8.8.7./ S S ( 0.0.I r 8 C 4.0.I ;   O 0 h x K _ E z 0 i J 8.",
"( ]  .] Y C B h 2 = 2 0 8 a U +.+.4.0.8.+.( ( ' ( ] ;.0.0.o.T T V s i s l l s 2 * 4 h B B J T T ! ] ",
"G G L L B c l 7 .   = G &.^ P K E ,.0.0.( S K } 8.8.0.0.0.0.0.0.M o   4 { 0./ <   X 0 l n ' 0.6.( G ",
"G K L P N k h 5     : G 1._ L G Y ;.0.7.^ A G ] 0.0.0.6.8.8.0.0.M o   2 ' 0./ <   X 7 d b ( 0.0.( K ",
"( { ..$.N 4 > 2 : * 6 v A A L Y U U T T Y K P ] 0.0.:. .} / / / n < * 4 k M h 5 = , < : 5 C >.*.] ( ",
"8.0.0.0.b X   - h n l s i k K _ U k r s Z Y W +.0.0.$.) ^ A h s h c c w o   + p C h *   . a E E } 8.",
"0.0.0.0.c o   : c F b p t h K _ L h 9 y B E Q $.0.0.$.) W Z p u h N C e X   o s U c *   o u E E } 0.",
"o.;.3.6.l o   @ 2 7 r c N n B A C n c v N N C W 3.4.G a u d k l p 7 7 3 : % = 5 0 4 +   o l @...] o.",
"L Y ^ ~ y .         < J &.Y k y h A W L c y p C ..( e     , c B 8 .   @ s N p % X X     O M 0.0.( K ",
"S G E P q           > Y 9.^ h 0 p G _ Y z 0 t N ` ^ 6     * v C 6     @ l T h @         o M 0.0.( G ",
"W ^ ] _ z 1 = # .   % d m c z z b G W L N k z N L G y O o , 0 e 7 < : 1 0 y 7 o   . o o = V 4.3.( ~ ",
"4.8.0.0.] Y U a o     X X : m ^ Y U Y Y Y Y L m h h h h d 4 X   2 G _ z %     .   o 0 d h A ^ ^  .4.",
"0.0.0.0.9.9.9.v O         % B 3._ Y Y Y W _ Q v t y k D C 7     4 ^ 0.C @         + p C C J W E ;.0.",
">.,.8.0.~ N m u < * +     & c W U L Y Y K G F N c z f r r 4 + X 4 v G f - o o .   X 4 t p v G J ( 4.",
"W ^ .._ k @ X 3 A E h @   O y c v G ^ Y n d h C ^ E r X . : p d 7 @ o : y j 0 +     X X @ r c b F W ",
"U W &.| u     3 ( 0.F %   o 5 p d G _ E l 0 y G 0.,.e     ; C U 9     @ l ~ h @         X 7 c c B Y ",
"Y L G A r o   1 B Y z %   # y c c C Y K b h k v G A e O o > p h 7 O . % y k r * + X     . 2 y p N E ",
"K a % + 2 r y 6 & # > 8 0 p C Y G v l b A Y G e O @ e Z C r @ o : r p 7 @ o % 0 d e @     o X @ f W ",
"S 7     < C U 7     + f A F ^ &.Q n s k Y 3.W 2     e ,.0.l X   : N T y X   + h R c :           q Y ",
"U e X   : h c 7 O . * e g l L _ Y h 0 p A ` P 7   . q R ^ u X   = d b e +   @ y n p %         . r ^ ",
"..s X   X + % 5 z m p = O : h G z 2 o % p B N c z j q < > %     X @ & , 7 r 7 : % % X         X h 1.",
"8.g X         6 _ 0.C #   X y H s +     5 b M E 0.1.r                 % c T h @               X k 8.",
";.h .         4 L #.v #   O e b y @   X 5 d k A _ ^ e X               % h C p @               X l 0.",
"/ n 5 1 * .   + 4 8 7 6 6 4 , * : 5 7 5 > * = 2 5 7 6 7 7 = .         X = 1 * X         . = 1 5 n  .",
"G N l h 2 .         & l U h @   o p U b :           2 F H 0 X                           . 5 k h m L ",
"K B c l 5 .         % h H d @   o y H c :           2 B C 9 X                           X 7 l x N L ",
"] T B N d 4 > * .   X , 5 , X   X = 5 < @           + 2 4 %                       X = > 4 d N C Y o.",
"0.#.Q Q A l h 5 X       .           .                                             X 7 h l F Q Q @.0.",
"0.@.Q W A b l 7 X                                                                 X 0 c c G E ^ @.0.",
"8./ m v m B B d < : % .                       % < < , < < @ .               X % = 2 h B B m v N / 0.",
"6.I y r v W _ F k g 7 o                       < j k d k h 2                 o 9 h k K _ Y l 0 y U 0.",
"4.J e 0 v ^ ` J b c 0 o                       4 c c k c c 4                 O e c b L | W l 7 r I 8.",
"{ U c l m C A B m N d , + % = : * X     + % * y N N b N N y = @ O .   X @ @ < h B M N B C C V C R o.",
"Y Y L G m s p z L W A d y p g k r %   X 7 k l G ^ ^ ^ _ ) G x k 7 X   @ w d k G ^ K h q d ! 0.6.( Y ",
"J L E E m t 0 h P ^ G k d h l b p #   X e V A W *.=.&.=.=.W C C e X   @ i c b L _ L d 5 i ! 0.0.] K ",
"L R ( ( H k h N ^ ..Y v k c b B k 1 o @ 4 0 q f c c z c c f e 0 5 @ o > h v m K E U V b M / 1.:.~ P ",
"Y ( 0.0._ G A W 1.0.@.L G K L R G l s y =   . X X X . X X X .   : y s k G Y L L L R } 4.@.~ Y Y Y L ",
"L ] 0.0.$.Y K _ 7.0.*.~ P E W ^ Y N n h :                       * h n B U ^ E L K E ,.0.0.^ G G L L ",
"U _ 8.0.} L G ^ 7.0.;.R K P Y W L m l f *                       = s l v L W Y L K R ;.0.6.^ G K L Y "
};
