/* XPM */
static char *_ef21dcbf35548c9c8b63d2b4acc38640fFjLuJ4oR5MjsNA[] = {
/* columns rows colors chars-per-pixel */
"50 50 243 2 ",
"   c None",
".  c black",
"X  c #010101",
"o  c #020202",
"O  c gray1",
"+  c #040404",
"@  c gray2",
"#  c #060606",
"$  c #070707",
"%  c gray3",
"&  c #090909",
"*  c gray4",
"=  c #0B0B0B",
"-  c #0C0C0C",
";  c gray5",
":  c #0E0E0E",
">  c gray6",
",  c #101010",
"<  c #111111",
"1  c gray7",
"2  c #131313",
"3  c gray8",
"4  c #151515",
"5  c #161616",
"6  c gray9",
"7  c #181818",
"8  c #191919",
"9  c gray10",
"0  c #1B1B1B",
"q  c gray11",
"w  c #1D1D1D",
"e  c #1E1E1E",
"r  c gray12",
"t  c #202020",
"y  c gray13",
"u  c #222222",
"i  c #232323",
"p  c gray14",
"a  c #252525",
"s  c #272727",
"d  c #282828",
"f  c gray16",
"g  c #2A2A2A",
"h  c gray17",
"j  c #2C2C2C",
"k  c #2D2D2D",
"l  c gray18",
"z  c #2F2F2F",
"x  c #313131",
"c  c #323232",
"v  c gray20",
"b  c #343434",
"n  c #353535",
"m  c gray21",
"M  c #373737",
"N  c gray22",
"B  c #393939",
"V  c #3A3A3A",
"C  c gray23",
"Z  c #3C3C3C",
"A  c gray24",
"S  c #3E3E3E",
"D  c #3F3F3F",
"F  c gray25",
"G  c #414141",
"H  c gray26",
"J  c #434343",
"K  c #444444",
"L  c gray27",
"P  c #464646",
"I  c gray28",
"U  c #484848",
"Y  c #494949",
"T  c gray29",
"R  c #4B4B4B",
"E  c #4C4C4C",
"W  c gray30",
"Q  c #4E4E4E",
"!  c gray31",
"~  c #505050",
"^  c #515151",
"/  c gray32",
"(  c #535353",
")  c gray33",
"_  c #555555",
"`  c #565656",
"'  c gray34",
"]  c #585858",
"[  c gray35",
"{  c #5A5A5A",
"}  c #5B5B5B",
"|  c gray36",
" . c #5D5D5D",
".. c gray37",
"X. c #5F5F5F",
"o. c #606060",
"O. c #626262",
"+. c gray39",
"@. c #646464",
"#. c #656565",
"$. c gray40",
"%. c #676767",
"&. c #686868",
"*. c #6A6A6A",
"=. c gray42",
"-. c #6C6C6C",
";. c gray43",
":. c #6F6F6F",
">. c gray44",
",. c #717171",
"<. c #727272",
"1. c gray45",
"2. c #747474",
"3. c gray46",
"4. c #767676",
"5. c #777777",
"6. c gray47",
"7. c #797979",
"8. c gray48",
"9. c #7B7B7B",
"0. c #7C7C7C",
"q. c gray49",
"w. c #7E7E7E",
"e. c gray50",
"r. c #818181",
"t. c gray51",
"y. c #838383",
"u. c #848484",
"i. c gray52",
"p. c #868686",
"a. c gray53",
"s. c #888888",
"d. c #898989",
"f. c gray54",
"g. c gray55",
"h. c #8D8D8D",
"j. c #8E8E8E",
"k. c gray56",
"l. c #909090",
"z. c gray57",
"x. c #929292",
"c. c #939393",
"v. c gray58",
"b. c #959595",
"n. c gray59",
"m. c #979797",
"M. c #989898",
"N. c gray60",
"B. c #9A9A9A",
"V. c gray61",
"C. c gray62",
"Z. c #9F9F9F",
"A. c #A0A0A0",
"S. c gray63",
"D. c #A2A2A2",
"F. c gray64",
"G. c #A4A4A4",
"H. c #A5A5A5",
"J. c gray65",
"K. c #A7A7A7",
"L. c gray66",
"P. c #A9A9A9",
"I. c #AAAAAA",
"U. c gray67",
"Y. c #ACACAC",
"T. c gray68",
"R. c #AEAEAE",
"E. c #AFAFAF",
"W. c gray69",
"Q. c #B1B1B1",
"!. c #B2B2B2",
"~. c gray70",
"^. c #B4B4B4",
"/. c gray71",
"(. c #B6B6B6",
"). c #B7B7B7",
"_. c gray72",
"`. c #B9B9B9",
"'. c gray73",
"]. c #BBBBBB",
"[. c #BCBCBC",
"{. c gray74",
"}. c gray",
"|. c gray75",
" X c #C0C0C0",
".X c #C1C1C1",
"XX c gray76",
"oX c #C3C3C3",
"OX c gray77",
"+X c #C5C5C5",
"@X c #C6C6C6",
"#X c gray78",
"$X c #C8C8C8",
"%X c gray79",
"&X c #CACACA",
"*X c #CBCBCB",
"=X c gray80",
"-X c #CDCDCD",
";X c #CECECE",
":X c gray81",
">X c #D0D0D0",
",X c gray82",
"<X c #D2D2D2",
"1X c LightGray",
"2X c gray83",
"3X c #D5D5D5",
"4X c gray84",
"5X c #D7D7D7",
"6X c #DADADA",
"7X c gray86",
"8X c gainsboro",
"9X c #DDDDDD",
"0X c #DFDFDF",
"qX c gray88",
"wX c #E1E1E1",
"eX c #E2E2E2",
"rX c gray89",
"tX c #E4E4E4",
"yX c gray90",
"uX c #E7E7E7",
"iX c gray91",
"pX c #E9E9E9",
"aX c #EAEAEA",
"sX c gray92",
"dX c #ECECEC",
"fX c gray93",
"gX c #EEEEEE",
"hX c #EFEFEF",
"jX c gray94",
"kX c #F1F1F1",
"lX c gray95",
"zX c #F3F3F3",
"xX c #F4F4F4",
"cX c gray96",
"vX c #F6F6F6",
"bX c gray97",
"nX c #F8F8F8",
"mX c gray98",
"MX c #FBFBFB",
"NX c gray99",
"BX c #FDFDFD",
"VX c #FEFEFE",
"CX c white",
/* pixels */
"                                b . . . . + + . . . . . . t                                         ",
"                              ] * . . . . . . . . . . . . > Q                                       ",
"                            Q . . . . . . . . . . . . . . . . . . . . ]                             ",
"                            T . . . . . . . . . . . . . . . . . . . . `                             ",
"                            &.Q T ~  . .` ~ ` ` ` ` ` ~ ~ `  . .~ Q ~ @.                            ",
"                      . . . ;.#XXX~.~.~.R.~.(.(.(.(.(.(.~.R.~.(.~.%X#Xo.. . >                       ",
"                      + . + ,.;X%XR.R.~.~.~.`.}.`.}.}.(.~.~.R.~.(.;X;X&.. . ,                       ",
"                      T G  .k.~.(.R.L.L.G.L.G.L.R.L.L.L.G.L.L.L.R.(.~.k.] G T                       ",
"              B . . B G.%X(.G.G.L.~.R.R.~.R.L.G.S.G.G.L.~.~.R.L.~.L.G.L.}.;XC.d . . T               ",
"              v . . I (.;X(.L.R.R.G.C.C.G.R.R.L.G.G.L.R.R.G.C.S.L.L.R.L.`.>X(.B . . G               ",
"              G . + T L.`.L.G.R.R.L.G.S.G.R.R.L.L.L.R.R.L.G.S.S.L.R.L.L.~.}.L.G . . Q               ",
"              Q . . A C.}.~.R.L.L.R.R.R.G.G.L.L.G.L.G.L.G.L.L.~.R.R.L.R.(.}.C.b . .                 ",
"              ~ . . A S.}.~.L.L.G.L.R.L.G.G.L.R.L.L.L.L.G.G.L.L.G.L.L.L.(.XXG.b . +                 ",
"              a . . G S.(.R.L.L.G.G.G.R.L.G.G.L.R.R.L.G.G.R.R.L.G.G.L.R.~.`.S.B . . l               ",
"        + . . . . + T R.#X(.~.~.R.G.G.L.L.G.G.L.R.L.G.G.G.L.L.G.L.R.R.~.`.%X~.G . . . . . >         ",
"        . . . . . + ~ `.>X`.(.`.~.G.S.S.S.L.R.R.G.G.R.R.L.S.C.S.G.(.`.(.XX4X~.T . . . . . +         ",
"        > . . + . . d ] @.,.n.~.~.G.S.S.S.R.R.L.G.S.L.~.L.S.S.G.L.(.(.n.;.&. .a . . + . . ,         ",
"        . . . . + + . . . , ;.`.XX~.(.(.(.`.(.(.~.~.(.(.`.`.`.(.(.%X`.@.> . . . + + . . . *         ",
"        * . . . . . . . . > ,.#X#X(.(.`.}.(.R.~.R.~.~.R.(.`.`.(.(.%X#X&.* . . . . . . . . >         ",
"        0.6.~ 3 . + . . . > I 6.0.,.6.u.f.u.y.u.f.u.y.y.u.f.y.5.5.y.5.G * . . + . . 8 ` 5.5.        ",
". . * 0.mXCX>XB . . . . . . . . . . . . . . . . . . . . . . . . . . . . . . . . . . T wXCXiX&.. . . ",
". . . 0.CXCX8XI . . . . . . . . . . . . . . . . . . . . . . . . . . . . . . . . . . ~ gXCXmX;.. . . ",
". . * 5.xXCXyXl.o.] B + . + * . . . . + * + . . + + . . + + + . . . + + . . * B `  .l.gXCXiX&.+ . . ",
". . . 5.xXCXCXCXCXCXN.> . . . . . . . + * + . + + + + . * * + . . . . . . . 8 R.CXCXCXCXCXiX@.. . . ",
". . * 6.xXCXCXCXCXCXG., . . . . . . . . + + + + . + + * + . . . . . . . . . q (.CXCXCXCXCXkX,.. . . ",
"~ ] @.0.C.C.N.C.G.C.y.@.` ] ` o. .b + . . . + . + . . . . . . * A  .] ~ ] ` o.0.C.L.S.N.C.C.u.o.Q Q ",
"CXCXkXu.> . . . . * ,.kXCXCXCXCXCX(.t . . . . . . . . . . . . l #XCXCXCXCXCX8X] . . . . . 8 n.mXCXCX",
"CXCXCXu.. . . . . . ,.CXCXCXCXCXCX>Xl . . . . . . . . . . . . B 4XCXCXCXCXCXCX@.. . . . . + l.CXCXCX",
"CXCXxXf.> . . . . + G N.`.R.S.R.R.u.Q d l b b d 8 q d b v d a T u.R.R.G.R.}.N.A + . . . . , k.CXCXCX",
"CXCXmXu.+ . . . . . . . + + . . . v l.#X}.(.~.(.`.`.(.~.~.XXXXy.t . . . + * . . . . . . . > l.CXCXCX",
"CXCXmXu.+ . . . . . . . . . . . . a S.iXyX>X;X4XwXwX4X;X4XiXiXN.q . . . . . . . . . . . . > l.CXCXCX",
"`.~.L.f.@. .T 3 . . . . . * d I I Q &.6.6.5.,.5.6.6.,.,.6.0.0.&.~ T G a + . . . . + q Q  .o.0.R.`.}.",
". . > 0.xXCX;XI . . . . . 3 ;.XXXX@.> . . . . . . . . . . . . q 6.#X}.o.3 . . . . . Q wXCXwX&.+ . . ",
". . . 6.CXCXwX~ . . . . . 3 5.7X>X&.+ . . . . . . . . . . . . + 5.7X4X,., . . . . . ` kXCXxX&.. . . ",
". . * 6.mXCX;XI . . . . . , ,.%X#Xy.G t l G Q ~ ` ~ ` Q A d t G f.%X#X&., . . . . . Q wXCXgX;.+ . . ",
". . + 0.CXCX8XQ . . . . . 3 6.;X;X~.G.N.L.4XxXCXmXCXCXkX>XL.N.S.(.>X;X,., . . . . . ` gXCXkX&.. . . ",
". . . 5.CXCXyX` . . . . . 8 6.%X;XXX`.~.}.iXCXCXCXCXCXCXiX}.~.}.#X>X%X5., . . . . .  .xXCXkX@.. . . ",
"A B G 5.(.>XC.b . . . . . > T ,.6.f.G.L.R.;XiXiXwXwXgXgX%XR.R.G.f.0.5.T > . . . . . b S.%X(.  T B b ",
"      5.* . + . . . . . . . . . + I S.#X`.`.#XXX}.XX#X#X`.XX%XN.B + . . . . . . . . . . . 3         ",
"      0.. . . . . . . . . . . . . v G.4X%X~.R.L.L.L.L.L.(.;X7XC.a . . . . . . . . . . . . .         ",
"        ` G B * . . , b T b > . . d ,.n.k.y.f.k.l.n.k.f.u.l.N.,.t . . 3 B I l > . . 8 B A           ",
"              G . . I L.;Xl.d . . . . . . . + . . . . . . . . . . . . B S.>XC.b . .                 ",
"              Q . + ~ #XgXG.l . . . . . . . . . . . . . . . . . . . . b ~.kX}.G . .                 ",
"              G . . G L.;XS.] d q d v A l , . . . . . + 3 v b l a q d  .G.;XG.b . .                 ",
"              B . . b N.#X}.(.R.L.L.`.%XC.b . . . . . . I G.#X(.L.G.R.(.XX#Xl.a . . T               ",
"              l . . b G.;X;X>X4X4X4X8XiX}.T . . . . . . Q #XyX8X4X7X4X;X;X4XC.d . . B               ",
"              5.d l ] 0.u.y.y.y.y.0.6.y.0.@.I v b b b I o.0.y.y.0.u.y.0.0.u.y.  d a                 ",
"                    k.q . * , , , * . . t f.iX        wX6.3 . + > , 3 , . . d                       ",
"                      + . . . . . . . . * l.            f.. . . . . . . . . >                       ",
"                      * . . . . . . . . . k.            f.. . . . . . . . . >                       "
};
