/* XPM */
static char *_2b72a0f08ef4797d850a4190129f6e9OxW71xVSX8fU2V5L[] = {
/* columns rows colors chars-per-pixel */
"50 50 64 1 ",
"  c black",
". c #070707",
"X c #090909",
"o c #0C0C0C",
"O c gray7",
"+ c #161616",
"@ c #181818",
"# c #1E1E1E",
"$ c #232323",
"% c gray14",
"& c #2A2A2A",
"* c gray18",
"= c #323232",
"- c #373737",
"; c #3A3A3A",
": c #3E3E3E",
"> c #434343",
", c gray27",
"< c #484848",
"1 c gray30",
"2 c gray32",
"3 c #555555",
"4 c #585858",
"5 c #5F5F5F",
"6 c gray39",
"7 c #676767",
"8 c #6A6A6A",
"9 c #6C6C6C",
"0 c gray45",
"q c #777777",
"w c #797979",
"e c gray50",
"r c #818181",
"t c #848484",
"y c #888888",
"u c #8D8D8D",
"i c #909090",
"p c #979797",
"a c #9A9A9A",
"s c gray62",
"d c #A0A0A0",
"f c #A7A7A7",
"g c gray66",
"h c #AFAFAF",
"j c #B1B1B1",
"k c #B4B4B4",
"l c gray73",
"z c #BCBCBC",
"x c gray76",
"c c #C5C5C5",
"v c #C8C8C8",
"b c gray81",
"n c LightGray",
"m c #D5D5D5",
"M c gray86",
"N c gray87",
"B c gray88",
"V c gray90",
"C c gray91",
"Z c #EFEFEF",
"A c gray95",
"S c gray97",
"D c #FBFBFB",
"F c gray99",
/* pixels */
"FSSSDDDDSBxgafhddp07000089089qr84fVSDSDFFZCSFDSSDF",
"ZADFDSSDDZNvklcvnx0>>>,,,<,>:,2-*iCDSCAASASAADDSFF",
"CAFFDAADFFDABVAFFF7X     .    .  0ZFFFSSAASSZADDAA",
"AFFDACZSFFSFFFFFFF1              5mFFFDADSSZDZSDVM",
"DDDAADSSSSDFFFZvxa:+@&=**&%&--%O@<ukcNSFFSDDSDSFZV",
"ZASZDFSASFFFFx8*O+*-19titeerut5,;#$*&2hZFFFFAADSFF",
"VZSAFFSADDFS1X    #=2ijkhgggjs84,.    +7MDFFZSSAFF",
"ZSSZSSASFFC2  X&#%0rugxcccvbbcdai7%@%o  3bFFFSASSF",
"ADFAZSDFFS3  +<wqynBmmNBVCCCZCBBBxiq92@  2mFFFDDZZ",
"VSFSDFFFZ-  =:1rslCFFFFFFFDSDFFFFVxgq62=  >lFFFFZV",
"ZSSSFFFC2  =0rtdznCFFFFFFFDDDFFFDZBvkprq>  >nFFFAZ",
"SSAAFFFr  @5fbmMNBCSDFSFDSSASDDDSSZCVNzdq=  5BFFZA",
"ASSSDFj; #-8xSFFSSDFDVCSSSSDDDDDSSDFFFDma1O .sDDDA",
"ASDDFA6 .27ebFFFDDDFFSAASDFDDDSSSDFFFFFBf9>X 8MFDA",
"ASDFFS% OedfMFFFFDDSDDDASDDDSAASSDFFDFFBzdr* <xFDZ",
"SSDDFFO +uzcVFFFFFSAASAASSDSAZZADFFFFFFBnxp- ;jDDA",
"DASSFD@ +eglMZAZSFFFDAASDDDSSSSDFFDZSDAncje% ;gDFA",
"FAASFS& o6eyjnblxBFFFFDFFFFDDFFFFSCncbbjsr2O :gDFS",
"FDDDFZ* .<45yhhpplVFFFFFFFFFFFFFAVvjafhpq5:o :hDFD",
"FDFFFC*  >23efgpufxmBSDSDDDDDDSCmxgpusgu93,# ;hDFD",
"SDFFFS* .<67ujkptifhhzvbnnnbbbbcjaiytflie62# ;gDFD",
"VAFFFS& X279akf049pfddauuuuuusggdp94whkpt72O :hDFF",
"ZDFFFM# X479szd8<3weyffaassadfsyew510djpr7<O :hDFA",
"DFFFSh+ X147akfq33738jmnmmMmBmfw5534wdhuw5,O :hDFA",
"FFZbxi# X;<4yhdq44726jAFDDFFFDkq4446rgjyq5>X :hFFF",
"SBxggy# X>59ihfw53616zFFFFFFFFlq4544ehjar91o ;gDFF",
"ckgfla+ O8iaflhe313>3zFFDAFFFFk924210fkfdi9$ :jDFZ",
"sadjnf+ Oylkhkfq3<2;1kDFSZSDFFf6,<<<9ajjjju* :kDAB",
"dssdxd+ +uxkggde767<3kDFSSSSFFh92357waghlza= >kDSB",
"kjayie+ @yljfdfityiqwcSFFDFSFFviertuisfdlza* :kFFA",
"zlsq85. @ylkhghffgjaaNSSSSFDFFNjdggffffdlza* :kFFF",
"hkd961  #tkkjjhhgjjffNDDDDFSFFNkfjjhfggfjju* ;jFFF",
"shf961. o9paggfhhggdhMDDFDFSFFNjdghggjhsspq$ ;hDFA",
"fjf753@ .,7qpafjkjhgkmADDDFSFFBkgkkhjkgur92+ ;gSAN",
"jzf543#  ;26ihhhhghgkMSDDSFSFFNhdhjhjkgtq5:X &fFSN",
"gld753# X256pzkayyitinDDDDFFFFbieuuudkjiw6:o -fFFA",
"pau975* o6q9ihft855,5lZSDSFFFFj03645whxae71@X%hDFF",
"ssy876,oo,60ihsw533:<kAASSFFFFg8231<8dzpq61@ $dDFF",
"vnh7364-++&3izkw43734zDDDSFDFFj945450gxr3<>+ &hFDA",
"DFm6<552&  %rbnu62653kDDDSFFFFj05434rxvq=#*==9mFZM",
"FFC8,5441%  5kvp75833jSDASFDFFf84645elc8+ #;6hZDZN",
"DFVy663585%.-7q536046xFFSFFFFFg8675129e<o *4pmAASS",
"ZZNhr855792$+OX.#,749bFFFFFFFFze782&oo+@@%1ibADADF",
"SAZMgtw75431-+   @:,0vFFFFFFFFxw3,&. oXO*6amSSDSDD",
"FFFSbfaw43256<*#Oo@$,ylccxxzbbi3*#o.O$$;5imDSFADSS",
"DDFFVchi94457533<*+  +&*=*&&:<=+.X@*<2<4yNDSFSDDSA",
"SDDSSVbdur84655793*O            X*16637umFFFADFSSS",
"AASDDFAvsguw0990ew3>-@oX.XOOoX +,2709uvDFFDSSSSSSD",
"CSFFDFSAnfggapiasar74422,<2322126izNMBASSDDFSSSDDD",
"CSFFASDFZghlgfghhgpq6900889q00089fCFFFDZCSFFAADFFF"
};
